%FSLAX45Y45*%
G04 Gerber Fmt 4.5, Leading zero omitted, Abs format (unit mm)*
G04 Created by KiCad (PCBNEW 4.0.7) date Sunday 08 October 2017 21:21:46*
%MOMM*%
%LPD*%
G01*
G04 APERTURE LIST*
%ADD10C,0.127000*%
%ADD11C,0.150000*%
%ADD12C,0.200000*%
%ADD13C,0.300000*%
G04 APERTURE END LIST*
D10*
D11*
X2000000Y-4000000D02*
X22000000Y-4000000D01*
X2000000Y-9900000D02*
X2000000Y-4000000D01*
X22000000Y-9900000D02*
X2000000Y-9900000D01*
X22000000Y-4000000D02*
X22000000Y-9900000D01*
D12*
X3221500Y-6165000D02*
X3291500Y-6235000D01*
X3291500Y-6165000D02*
X3221500Y-6235000D01*
X3729500Y-6165000D02*
X3799500Y-6235000D01*
X3799500Y-6165000D02*
X3729500Y-6235000D01*
X7028000Y-6517500D02*
X7098000Y-6587500D01*
X7098000Y-6517500D02*
X7028000Y-6587500D01*
X7030500Y-6120000D02*
X7100500Y-6190000D01*
X7100500Y-6120000D02*
X7030500Y-6190000D01*
X7536000Y-6517500D02*
X7606000Y-6587500D01*
X7606000Y-6517500D02*
X7536000Y-6587500D01*
X7538500Y-6120000D02*
X7608500Y-6190000D01*
X7608500Y-6120000D02*
X7538500Y-6190000D01*
X8215000Y-6165000D02*
X8285000Y-6235000D01*
X8285000Y-6165000D02*
X8215000Y-6235000D01*
X8723000Y-6165000D02*
X8793000Y-6235000D01*
X8793000Y-6165000D02*
X8723000Y-6235000D01*
X11317500Y-6122500D02*
X11387500Y-6192500D01*
X11387500Y-6122500D02*
X11317500Y-6192500D01*
X11325000Y-6502500D02*
X11395000Y-6572500D01*
X11395000Y-6502500D02*
X11325000Y-6572500D01*
X11482500Y-6965000D02*
X11552500Y-7035000D01*
X11552500Y-6965000D02*
X11482500Y-7035000D01*
X11482500Y-7473000D02*
X11552500Y-7543000D01*
X11552500Y-7473000D02*
X11482500Y-7543000D01*
X11825500Y-6122500D02*
X11895500Y-6192500D01*
X11895500Y-6122500D02*
X11825500Y-6192500D01*
X11833000Y-6502500D02*
X11903000Y-6572500D01*
X11903000Y-6502500D02*
X11833000Y-6572500D01*
X11840000Y-6962000D02*
X11910000Y-7032000D01*
X11910000Y-6962000D02*
X11840000Y-7032000D01*
X11840000Y-7470000D02*
X11910000Y-7540000D01*
X11910000Y-7470000D02*
X11840000Y-7540000D01*
X12285000Y-7600000D02*
X12355000Y-7670000D01*
X12355000Y-7600000D02*
X12285000Y-7670000D01*
X12285000Y-8108000D02*
X12355000Y-8178000D01*
X12355000Y-8108000D02*
X12285000Y-8178000D01*
X13204500Y-6165000D02*
X13274500Y-6235000D01*
X13274500Y-6165000D02*
X13204500Y-6235000D01*
X13712500Y-6165000D02*
X13782500Y-6235000D01*
X13782500Y-6165000D02*
X13712500Y-6235000D01*
X13857500Y-7845000D02*
X13927500Y-7915000D01*
X13927500Y-7845000D02*
X13857500Y-7915000D01*
X13857500Y-8353000D02*
X13927500Y-8423000D01*
X13927500Y-8353000D02*
X13857500Y-8423000D01*
X14232000Y-6112500D02*
X14302000Y-6182500D01*
X14302000Y-6112500D02*
X14232000Y-6182500D01*
X14242500Y-6487500D02*
X14312500Y-6557500D01*
X14312500Y-6487500D02*
X14242500Y-6557500D01*
X14265000Y-7220000D02*
X14335000Y-7290000D01*
X14335000Y-7220000D02*
X14265000Y-7290000D01*
X14265000Y-7728000D02*
X14335000Y-7798000D01*
X14335000Y-7728000D02*
X14265000Y-7798000D01*
X14595000Y-7212500D02*
X14665000Y-7282500D01*
X14665000Y-7212500D02*
X14595000Y-7282500D01*
X14595000Y-7720500D02*
X14665000Y-7790500D01*
X14665000Y-7720500D02*
X14595000Y-7790500D01*
X14740000Y-6112500D02*
X14810000Y-6182500D01*
X14810000Y-6112500D02*
X14740000Y-6182500D01*
X14750500Y-6487500D02*
X14820500Y-6557500D01*
X14820500Y-6487500D02*
X14750500Y-6557500D01*
X18214500Y-6165000D02*
X18284500Y-6235000D01*
X18284500Y-6165000D02*
X18214500Y-6235000D01*
X18722500Y-6165000D02*
X18792500Y-6235000D01*
X18792500Y-6165000D02*
X18722500Y-6235000D01*
X18882000Y-7092500D02*
X18952000Y-7162500D01*
X18952000Y-7092500D02*
X18882000Y-7162500D01*
X18882000Y-7510000D02*
X18952000Y-7580000D01*
X18952000Y-7510000D02*
X18882000Y-7580000D01*
X19390000Y-7092500D02*
X19460000Y-7162500D01*
X19460000Y-7092500D02*
X19390000Y-7162500D01*
X19390000Y-7510000D02*
X19460000Y-7580000D01*
X19460000Y-7510000D02*
X19390000Y-7580000D01*
X5388100Y-5950000D02*
G75*
G03X5388100Y-5950000I-38100J0D01*
G01*
X5378100Y-5971900D02*
X5378100Y-5928100D01*
X5321900Y-5971900D02*
X5321900Y-5928100D01*
X5378100Y-5928100D02*
G75*
G03X5321900Y-5928100I-28100J0D01*
G01*
X5321900Y-5971900D02*
G75*
G03X5378100Y-5971900I28100J0D01*
G01*
X5388100Y-6350000D02*
G75*
G03X5388100Y-6350000I-38100J0D01*
G01*
X5378100Y-6371900D02*
X5378100Y-6328100D01*
X5321900Y-6371900D02*
X5321900Y-6328100D01*
X5378100Y-6328100D02*
G75*
G03X5321900Y-6328100I-28100J0D01*
G01*
X5321900Y-6371900D02*
G75*
G03X5378100Y-6371900I28100J0D01*
G01*
X5388100Y-6750000D02*
G75*
G03X5388100Y-6750000I-38100J0D01*
G01*
X5378100Y-6771900D02*
X5378100Y-6728100D01*
X5321900Y-6771900D02*
X5321900Y-6728100D01*
X5378100Y-6728100D02*
G75*
G03X5321900Y-6728100I-28100J0D01*
G01*
X5321900Y-6771900D02*
G75*
G03X5378100Y-6771900I28100J0D01*
G01*
X5388100Y-7150000D02*
G75*
G03X5388100Y-7150000I-38100J0D01*
G01*
X5378100Y-7171900D02*
X5378100Y-7128100D01*
X5321900Y-7171900D02*
X5321900Y-7128100D01*
X5378100Y-7128100D02*
G75*
G03X5321900Y-7128100I-28100J0D01*
G01*
X5321900Y-7171900D02*
G75*
G03X5378100Y-7171900I28100J0D01*
G01*
X5388100Y-7550000D02*
G75*
G03X5388100Y-7550000I-38100J0D01*
G01*
X5378100Y-7571900D02*
X5378100Y-7528100D01*
X5321900Y-7571900D02*
X5321900Y-7528100D01*
X5378100Y-7528100D02*
G75*
G03X5321900Y-7528100I-28100J0D01*
G01*
X5321900Y-7571900D02*
G75*
G03X5378100Y-7571900I28100J0D01*
G01*
X5388100Y-7950000D02*
G75*
G03X5388100Y-7950000I-38100J0D01*
G01*
X5378100Y-7971900D02*
X5378100Y-7928100D01*
X5321900Y-7971900D02*
X5321900Y-7928100D01*
X5378100Y-7928100D02*
G75*
G03X5321900Y-7928100I-28100J0D01*
G01*
X5321900Y-7971900D02*
G75*
G03X5378100Y-7971900I28100J0D01*
G01*
X5988100Y-5950000D02*
G75*
G03X5988100Y-5950000I-38100J0D01*
G01*
X5978100Y-5971900D02*
X5978100Y-5928100D01*
X5921900Y-5971900D02*
X5921900Y-5928100D01*
X5978100Y-5928100D02*
G75*
G03X5921900Y-5928100I-28100J0D01*
G01*
X5921900Y-5971900D02*
G75*
G03X5978100Y-5971900I28100J0D01*
G01*
X5988100Y-6350000D02*
G75*
G03X5988100Y-6350000I-38100J0D01*
G01*
X5978100Y-6371900D02*
X5978100Y-6328100D01*
X5921900Y-6371900D02*
X5921900Y-6328100D01*
X5978100Y-6328100D02*
G75*
G03X5921900Y-6328100I-28100J0D01*
G01*
X5921900Y-6371900D02*
G75*
G03X5978100Y-6371900I28100J0D01*
G01*
X5988100Y-6750000D02*
G75*
G03X5988100Y-6750000I-38100J0D01*
G01*
X5978100Y-6771900D02*
X5978100Y-6728100D01*
X5921900Y-6771900D02*
X5921900Y-6728100D01*
X5978100Y-6728100D02*
G75*
G03X5921900Y-6728100I-28100J0D01*
G01*
X5921900Y-6771900D02*
G75*
G03X5978100Y-6771900I28100J0D01*
G01*
X5988100Y-7150000D02*
G75*
G03X5988100Y-7150000I-38100J0D01*
G01*
X5978100Y-7171900D02*
X5978100Y-7128100D01*
X5921900Y-7171900D02*
X5921900Y-7128100D01*
X5978100Y-7128100D02*
G75*
G03X5921900Y-7128100I-28100J0D01*
G01*
X5921900Y-7171900D02*
G75*
G03X5978100Y-7171900I28100J0D01*
G01*
X5988100Y-7550000D02*
G75*
G03X5988100Y-7550000I-38100J0D01*
G01*
X5978100Y-7571900D02*
X5978100Y-7528100D01*
X5921900Y-7571900D02*
X5921900Y-7528100D01*
X5978100Y-7528100D02*
G75*
G03X5921900Y-7528100I-28100J0D01*
G01*
X5921900Y-7571900D02*
G75*
G03X5978100Y-7571900I28100J0D01*
G01*
X5988100Y-7950000D02*
G75*
G03X5988100Y-7950000I-38100J0D01*
G01*
X5978100Y-7971900D02*
X5978100Y-7928100D01*
X5921900Y-7971900D02*
X5921900Y-7928100D01*
X5978100Y-7928100D02*
G75*
G03X5921900Y-7928100I-28100J0D01*
G01*
X5921900Y-7971900D02*
G75*
G03X5978100Y-7971900I28100J0D01*
G01*
X10288100Y-5950000D02*
G75*
G03X10288100Y-5950000I-38100J0D01*
G01*
X10278100Y-5971900D02*
X10278100Y-5928100D01*
X10221900Y-5971900D02*
X10221900Y-5928100D01*
X10278100Y-5928100D02*
G75*
G03X10221900Y-5928100I-28100J0D01*
G01*
X10221900Y-5971900D02*
G75*
G03X10278100Y-5971900I28100J0D01*
G01*
X10288100Y-6350000D02*
G75*
G03X10288100Y-6350000I-38100J0D01*
G01*
X10278100Y-6371900D02*
X10278100Y-6328100D01*
X10221900Y-6371900D02*
X10221900Y-6328100D01*
X10278100Y-6328100D02*
G75*
G03X10221900Y-6328100I-28100J0D01*
G01*
X10221900Y-6371900D02*
G75*
G03X10278100Y-6371900I28100J0D01*
G01*
X10288100Y-6750000D02*
G75*
G03X10288100Y-6750000I-38100J0D01*
G01*
X10278100Y-6771900D02*
X10278100Y-6728100D01*
X10221900Y-6771900D02*
X10221900Y-6728100D01*
X10278100Y-6728100D02*
G75*
G03X10221900Y-6728100I-28100J0D01*
G01*
X10221900Y-6771900D02*
G75*
G03X10278100Y-6771900I28100J0D01*
G01*
X10288100Y-7150000D02*
G75*
G03X10288100Y-7150000I-38100J0D01*
G01*
X10278100Y-7171900D02*
X10278100Y-7128100D01*
X10221900Y-7171900D02*
X10221900Y-7128100D01*
X10278100Y-7128100D02*
G75*
G03X10221900Y-7128100I-28100J0D01*
G01*
X10221900Y-7171900D02*
G75*
G03X10278100Y-7171900I28100J0D01*
G01*
X10288100Y-7550000D02*
G75*
G03X10288100Y-7550000I-38100J0D01*
G01*
X10278100Y-7571900D02*
X10278100Y-7528100D01*
X10221900Y-7571900D02*
X10221900Y-7528100D01*
X10278100Y-7528100D02*
G75*
G03X10221900Y-7528100I-28100J0D01*
G01*
X10221900Y-7571900D02*
G75*
G03X10278100Y-7571900I28100J0D01*
G01*
X10288100Y-7950000D02*
G75*
G03X10288100Y-7950000I-38100J0D01*
G01*
X10278100Y-7971900D02*
X10278100Y-7928100D01*
X10221900Y-7971900D02*
X10221900Y-7928100D01*
X10278100Y-7928100D02*
G75*
G03X10221900Y-7928100I-28100J0D01*
G01*
X10221900Y-7971900D02*
G75*
G03X10278100Y-7971900I28100J0D01*
G01*
X10888100Y-5950000D02*
G75*
G03X10888100Y-5950000I-38100J0D01*
G01*
X10878100Y-5971900D02*
X10878100Y-5928100D01*
X10821900Y-5971900D02*
X10821900Y-5928100D01*
X10878100Y-5928100D02*
G75*
G03X10821900Y-5928100I-28100J0D01*
G01*
X10821900Y-5971900D02*
G75*
G03X10878100Y-5971900I28100J0D01*
G01*
X10888100Y-6350000D02*
G75*
G03X10888100Y-6350000I-38100J0D01*
G01*
X10878100Y-6371900D02*
X10878100Y-6328100D01*
X10821900Y-6371900D02*
X10821900Y-6328100D01*
X10878100Y-6328100D02*
G75*
G03X10821900Y-6328100I-28100J0D01*
G01*
X10821900Y-6371900D02*
G75*
G03X10878100Y-6371900I28100J0D01*
G01*
X10888100Y-6750000D02*
G75*
G03X10888100Y-6750000I-38100J0D01*
G01*
X10878100Y-6771900D02*
X10878100Y-6728100D01*
X10821900Y-6771900D02*
X10821900Y-6728100D01*
X10878100Y-6728100D02*
G75*
G03X10821900Y-6728100I-28100J0D01*
G01*
X10821900Y-6771900D02*
G75*
G03X10878100Y-6771900I28100J0D01*
G01*
X10888100Y-7150000D02*
G75*
G03X10888100Y-7150000I-38100J0D01*
G01*
X10878100Y-7171900D02*
X10878100Y-7128100D01*
X10821900Y-7171900D02*
X10821900Y-7128100D01*
X10878100Y-7128100D02*
G75*
G03X10821900Y-7128100I-28100J0D01*
G01*
X10821900Y-7171900D02*
G75*
G03X10878100Y-7171900I28100J0D01*
G01*
X10888100Y-7550000D02*
G75*
G03X10888100Y-7550000I-38100J0D01*
G01*
X10878100Y-7571900D02*
X10878100Y-7528100D01*
X10821900Y-7571900D02*
X10821900Y-7528100D01*
X10878100Y-7528100D02*
G75*
G03X10821900Y-7528100I-28100J0D01*
G01*
X10821900Y-7571900D02*
G75*
G03X10878100Y-7571900I28100J0D01*
G01*
X10888100Y-7950000D02*
G75*
G03X10888100Y-7950000I-38100J0D01*
G01*
X10878100Y-7971900D02*
X10878100Y-7928100D01*
X10821900Y-7971900D02*
X10821900Y-7928100D01*
X10878100Y-7928100D02*
G75*
G03X10821900Y-7928100I-28100J0D01*
G01*
X10821900Y-7971900D02*
G75*
G03X10878100Y-7971900I28100J0D01*
G01*
X15288100Y-5950000D02*
G75*
G03X15288100Y-5950000I-38100J0D01*
G01*
X15278100Y-5971900D02*
X15278100Y-5928100D01*
X15221900Y-5971900D02*
X15221900Y-5928100D01*
X15278100Y-5928100D02*
G75*
G03X15221900Y-5928100I-28100J0D01*
G01*
X15221900Y-5971900D02*
G75*
G03X15278100Y-5971900I28100J0D01*
G01*
X15288100Y-6350000D02*
G75*
G03X15288100Y-6350000I-38100J0D01*
G01*
X15278100Y-6371900D02*
X15278100Y-6328100D01*
X15221900Y-6371900D02*
X15221900Y-6328100D01*
X15278100Y-6328100D02*
G75*
G03X15221900Y-6328100I-28100J0D01*
G01*
X15221900Y-6371900D02*
G75*
G03X15278100Y-6371900I28100J0D01*
G01*
X15288100Y-6750000D02*
G75*
G03X15288100Y-6750000I-38100J0D01*
G01*
X15278100Y-6771900D02*
X15278100Y-6728100D01*
X15221900Y-6771900D02*
X15221900Y-6728100D01*
X15278100Y-6728100D02*
G75*
G03X15221900Y-6728100I-28100J0D01*
G01*
X15221900Y-6771900D02*
G75*
G03X15278100Y-6771900I28100J0D01*
G01*
X15288100Y-7150000D02*
G75*
G03X15288100Y-7150000I-38100J0D01*
G01*
X15278100Y-7171900D02*
X15278100Y-7128100D01*
X15221900Y-7171900D02*
X15221900Y-7128100D01*
X15278100Y-7128100D02*
G75*
G03X15221900Y-7128100I-28100J0D01*
G01*
X15221900Y-7171900D02*
G75*
G03X15278100Y-7171900I28100J0D01*
G01*
X15288100Y-7550000D02*
G75*
G03X15288100Y-7550000I-38100J0D01*
G01*
X15278100Y-7571900D02*
X15278100Y-7528100D01*
X15221900Y-7571900D02*
X15221900Y-7528100D01*
X15278100Y-7528100D02*
G75*
G03X15221900Y-7528100I-28100J0D01*
G01*
X15221900Y-7571900D02*
G75*
G03X15278100Y-7571900I28100J0D01*
G01*
X15288100Y-7950000D02*
G75*
G03X15288100Y-7950000I-38100J0D01*
G01*
X15278100Y-7971900D02*
X15278100Y-7928100D01*
X15221900Y-7971900D02*
X15221900Y-7928100D01*
X15278100Y-7928100D02*
G75*
G03X15221900Y-7928100I-28100J0D01*
G01*
X15221900Y-7971900D02*
G75*
G03X15278100Y-7971900I28100J0D01*
G01*
X15888100Y-5950000D02*
G75*
G03X15888100Y-5950000I-38100J0D01*
G01*
X15878100Y-5971900D02*
X15878100Y-5928100D01*
X15821900Y-5971900D02*
X15821900Y-5928100D01*
X15878100Y-5928100D02*
G75*
G03X15821900Y-5928100I-28100J0D01*
G01*
X15821900Y-5971900D02*
G75*
G03X15878100Y-5971900I28100J0D01*
G01*
X15888100Y-6350000D02*
G75*
G03X15888100Y-6350000I-38100J0D01*
G01*
X15878100Y-6371900D02*
X15878100Y-6328100D01*
X15821900Y-6371900D02*
X15821900Y-6328100D01*
X15878100Y-6328100D02*
G75*
G03X15821900Y-6328100I-28100J0D01*
G01*
X15821900Y-6371900D02*
G75*
G03X15878100Y-6371900I28100J0D01*
G01*
X15888100Y-6750000D02*
G75*
G03X15888100Y-6750000I-38100J0D01*
G01*
X15878100Y-6771900D02*
X15878100Y-6728100D01*
X15821900Y-6771900D02*
X15821900Y-6728100D01*
X15878100Y-6728100D02*
G75*
G03X15821900Y-6728100I-28100J0D01*
G01*
X15821900Y-6771900D02*
G75*
G03X15878100Y-6771900I28100J0D01*
G01*
X15888100Y-7150000D02*
G75*
G03X15888100Y-7150000I-38100J0D01*
G01*
X15878100Y-7171900D02*
X15878100Y-7128100D01*
X15821900Y-7171900D02*
X15821900Y-7128100D01*
X15878100Y-7128100D02*
G75*
G03X15821900Y-7128100I-28100J0D01*
G01*
X15821900Y-7171900D02*
G75*
G03X15878100Y-7171900I28100J0D01*
G01*
X15888100Y-7550000D02*
G75*
G03X15888100Y-7550000I-38100J0D01*
G01*
X15878100Y-7571900D02*
X15878100Y-7528100D01*
X15821900Y-7571900D02*
X15821900Y-7528100D01*
X15878100Y-7528100D02*
G75*
G03X15821900Y-7528100I-28100J0D01*
G01*
X15821900Y-7571900D02*
G75*
G03X15878100Y-7571900I28100J0D01*
G01*
X15888100Y-7950000D02*
G75*
G03X15888100Y-7950000I-38100J0D01*
G01*
X15878100Y-7971900D02*
X15878100Y-7928100D01*
X15821900Y-7971900D02*
X15821900Y-7928100D01*
X15878100Y-7928100D02*
G75*
G03X15821900Y-7928100I-28100J0D01*
G01*
X15821900Y-7971900D02*
G75*
G03X15878100Y-7971900I28100J0D01*
G01*
X20188100Y-5950000D02*
G75*
G03X20188100Y-5950000I-38100J0D01*
G01*
X20178100Y-5971900D02*
X20178100Y-5928100D01*
X20121900Y-5971900D02*
X20121900Y-5928100D01*
X20178100Y-5928100D02*
G75*
G03X20121900Y-5928100I-28100J0D01*
G01*
X20121900Y-5971900D02*
G75*
G03X20178100Y-5971900I28100J0D01*
G01*
X20188100Y-6350000D02*
G75*
G03X20188100Y-6350000I-38100J0D01*
G01*
X20178100Y-6371900D02*
X20178100Y-6328100D01*
X20121900Y-6371900D02*
X20121900Y-6328100D01*
X20178100Y-6328100D02*
G75*
G03X20121900Y-6328100I-28100J0D01*
G01*
X20121900Y-6371900D02*
G75*
G03X20178100Y-6371900I28100J0D01*
G01*
X20188100Y-6750000D02*
G75*
G03X20188100Y-6750000I-38100J0D01*
G01*
X20178100Y-6771900D02*
X20178100Y-6728100D01*
X20121900Y-6771900D02*
X20121900Y-6728100D01*
X20178100Y-6728100D02*
G75*
G03X20121900Y-6728100I-28100J0D01*
G01*
X20121900Y-6771900D02*
G75*
G03X20178100Y-6771900I28100J0D01*
G01*
X20188100Y-7150000D02*
G75*
G03X20188100Y-7150000I-38100J0D01*
G01*
X20178100Y-7171900D02*
X20178100Y-7128100D01*
X20121900Y-7171900D02*
X20121900Y-7128100D01*
X20178100Y-7128100D02*
G75*
G03X20121900Y-7128100I-28100J0D01*
G01*
X20121900Y-7171900D02*
G75*
G03X20178100Y-7171900I28100J0D01*
G01*
X20188100Y-7550000D02*
G75*
G03X20188100Y-7550000I-38100J0D01*
G01*
X20178100Y-7571900D02*
X20178100Y-7528100D01*
X20121900Y-7571900D02*
X20121900Y-7528100D01*
X20178100Y-7528100D02*
G75*
G03X20121900Y-7528100I-28100J0D01*
G01*
X20121900Y-7571900D02*
G75*
G03X20178100Y-7571900I28100J0D01*
G01*
X20188100Y-7950000D02*
G75*
G03X20188100Y-7950000I-38100J0D01*
G01*
X20178100Y-7971900D02*
X20178100Y-7928100D01*
X20121900Y-7971900D02*
X20121900Y-7928100D01*
X20178100Y-7928100D02*
G75*
G03X20121900Y-7928100I-28100J0D01*
G01*
X20121900Y-7971900D02*
G75*
G03X20178100Y-7971900I28100J0D01*
G01*
X20788100Y-5950000D02*
G75*
G03X20788100Y-5950000I-38100J0D01*
G01*
X20778100Y-5971900D02*
X20778100Y-5928100D01*
X20721900Y-5971900D02*
X20721900Y-5928100D01*
X20778100Y-5928100D02*
G75*
G03X20721900Y-5928100I-28100J0D01*
G01*
X20721900Y-5971900D02*
G75*
G03X20778100Y-5971900I28100J0D01*
G01*
X20788100Y-6350000D02*
G75*
G03X20788100Y-6350000I-38100J0D01*
G01*
X20778100Y-6371900D02*
X20778100Y-6328100D01*
X20721900Y-6371900D02*
X20721900Y-6328100D01*
X20778100Y-6328100D02*
G75*
G03X20721900Y-6328100I-28100J0D01*
G01*
X20721900Y-6371900D02*
G75*
G03X20778100Y-6371900I28100J0D01*
G01*
X20788100Y-6750000D02*
G75*
G03X20788100Y-6750000I-38100J0D01*
G01*
X20778100Y-6771900D02*
X20778100Y-6728100D01*
X20721900Y-6771900D02*
X20721900Y-6728100D01*
X20778100Y-6728100D02*
G75*
G03X20721900Y-6728100I-28100J0D01*
G01*
X20721900Y-6771900D02*
G75*
G03X20778100Y-6771900I28100J0D01*
G01*
X20788100Y-7150000D02*
G75*
G03X20788100Y-7150000I-38100J0D01*
G01*
X20778100Y-7171900D02*
X20778100Y-7128100D01*
X20721900Y-7171900D02*
X20721900Y-7128100D01*
X20778100Y-7128100D02*
G75*
G03X20721900Y-7128100I-28100J0D01*
G01*
X20721900Y-7171900D02*
G75*
G03X20778100Y-7171900I28100J0D01*
G01*
X20788100Y-7550000D02*
G75*
G03X20788100Y-7550000I-38100J0D01*
G01*
X20778100Y-7571900D02*
X20778100Y-7528100D01*
X20721900Y-7571900D02*
X20721900Y-7528100D01*
X20778100Y-7528100D02*
G75*
G03X20721900Y-7528100I-28100J0D01*
G01*
X20721900Y-7571900D02*
G75*
G03X20778100Y-7571900I28100J0D01*
G01*
X20788100Y-7950000D02*
G75*
G03X20788100Y-7950000I-38100J0D01*
G01*
X20778100Y-7971900D02*
X20778100Y-7928100D01*
X20721900Y-7971900D02*
X20721900Y-7928100D01*
X20778100Y-7928100D02*
G75*
G03X20721900Y-7928100I-28100J0D01*
G01*
X20721900Y-7971900D02*
G75*
G03X20778100Y-7971900I28100J0D01*
G01*
X4000000Y-7960000D02*
X4000000Y-8040000D01*
X3960000Y-8000000D02*
X4040000Y-8000000D01*
X4000000Y-8460000D02*
X4000000Y-8540000D01*
X3960000Y-8500000D02*
X4040000Y-8500000D01*
X4500000Y-7960000D02*
X4500000Y-8040000D01*
X4460000Y-8000000D02*
X4540000Y-8000000D01*
X4500000Y-8460000D02*
X4500000Y-8540000D01*
X4460000Y-8500000D02*
X4540000Y-8500000D01*
X9000000Y-7960000D02*
X9000000Y-8040000D01*
X8960000Y-8000000D02*
X9040000Y-8000000D01*
X9000000Y-8460000D02*
X9000000Y-8540000D01*
X8960000Y-8500000D02*
X9040000Y-8500000D01*
X9500000Y-7960000D02*
X9500000Y-8040000D01*
X9460000Y-8000000D02*
X9540000Y-8000000D01*
X9500000Y-8460000D02*
X9500000Y-8540000D01*
X9460000Y-8500000D02*
X9540000Y-8500000D01*
X12312500Y-7075000D02*
X12312500Y-7155000D01*
X12272500Y-7115000D02*
X12352500Y-7115000D01*
X12706000Y-7080000D02*
X12706000Y-7160000D01*
X12666000Y-7120000D02*
X12746000Y-7120000D01*
X12706000Y-7334000D02*
X12706000Y-7414000D01*
X12666000Y-7374000D02*
X12746000Y-7374000D01*
X12706000Y-7588000D02*
X12706000Y-7668000D01*
X12666000Y-7628000D02*
X12746000Y-7628000D01*
X12706000Y-7842000D02*
X12706000Y-7922000D01*
X12666000Y-7882000D02*
X12746000Y-7882000D01*
X13468000Y-7080000D02*
X13468000Y-7160000D01*
X13428000Y-7120000D02*
X13508000Y-7120000D01*
X13468000Y-7334000D02*
X13468000Y-7414000D01*
X13428000Y-7374000D02*
X13508000Y-7374000D01*
X13468000Y-7588000D02*
X13468000Y-7668000D01*
X13428000Y-7628000D02*
X13508000Y-7628000D01*
X13468000Y-7842000D02*
X13468000Y-7922000D01*
X13428000Y-7882000D02*
X13508000Y-7882000D01*
X13897500Y-7315000D02*
X13897500Y-7395000D01*
X13857500Y-7355000D02*
X13937500Y-7355000D01*
X16500000Y-7960000D02*
X16500000Y-8040000D01*
X16460000Y-8000000D02*
X16540000Y-8000000D01*
X16500000Y-8460000D02*
X16500000Y-8540000D01*
X16460000Y-8500000D02*
X16540000Y-8500000D01*
X17000000Y-7960000D02*
X17000000Y-8040000D01*
X16960000Y-8000000D02*
X17040000Y-8000000D01*
X17000000Y-8460000D02*
X17000000Y-8540000D01*
X16960000Y-8500000D02*
X17040000Y-8500000D01*
X21150000Y-7960000D02*
X21150000Y-8040000D01*
X21110000Y-8000000D02*
X21190000Y-8000000D01*
X21150000Y-8460000D02*
X21150000Y-8540000D01*
X21110000Y-8500000D02*
X21190000Y-8500000D01*
X21625000Y-7960000D02*
X21625000Y-8040000D01*
X21585000Y-8000000D02*
X21665000Y-8000000D01*
X21625000Y-8460000D02*
X21625000Y-8540000D01*
X21585000Y-8500000D02*
X21665000Y-8500000D01*
X12340788Y-7393288D02*
X12340788Y-7336712D01*
X12284212Y-7336712D01*
X12284212Y-7393288D01*
X12340788Y-7393288D01*
X13925788Y-7633288D02*
X13925788Y-7576712D01*
X13869212Y-7576712D01*
X13869212Y-7633288D01*
X13925788Y-7633288D01*
X3246000Y-5445000D02*
X3291000Y-5400000D01*
X3246000Y-5355000D01*
X3201000Y-5400000D01*
X3246000Y-5445000D01*
X3500000Y-5445000D02*
X3545000Y-5400000D01*
X3500000Y-5355000D01*
X3455000Y-5400000D01*
X3500000Y-5445000D01*
X8246000Y-5445000D02*
X8291000Y-5400000D01*
X8246000Y-5355000D01*
X8201000Y-5400000D01*
X8246000Y-5445000D01*
X8500000Y-5445000D02*
X8545000Y-5400000D01*
X8500000Y-5355000D01*
X8455000Y-5400000D01*
X8500000Y-5445000D01*
X13246000Y-5445000D02*
X13291000Y-5400000D01*
X13246000Y-5355000D01*
X13201000Y-5400000D01*
X13246000Y-5445000D01*
X13500000Y-5445000D02*
X13545000Y-5400000D01*
X13500000Y-5355000D01*
X13455000Y-5400000D01*
X13500000Y-5445000D01*
X18246000Y-5445000D02*
X18291000Y-5400000D01*
X18246000Y-5355000D01*
X18201000Y-5400000D01*
X18246000Y-5445000D01*
X18500000Y-5445000D02*
X18545000Y-5400000D01*
X18500000Y-5355000D01*
X18455000Y-5400000D01*
X18500000Y-5445000D01*
X4195200Y-8949200D02*
X4296800Y-9050800D01*
X4296800Y-8949200D02*
X4195200Y-9050800D01*
X4296800Y-9000000D02*
G75*
G03X4296800Y-9000000I-50800J0D01*
G01*
X4449200Y-8949200D02*
X4550800Y-9050800D01*
X4550800Y-8949200D02*
X4449200Y-9050800D01*
X4550800Y-9000000D02*
G75*
G03X4550800Y-9000000I-50800J0D01*
G01*
X9195200Y-8949200D02*
X9296800Y-9050800D01*
X9296800Y-8949200D02*
X9195200Y-9050800D01*
X9296800Y-9000000D02*
G75*
G03X9296800Y-9000000I-50800J0D01*
G01*
X9449200Y-8949200D02*
X9550800Y-9050800D01*
X9550800Y-8949200D02*
X9449200Y-9050800D01*
X9550800Y-9000000D02*
G75*
G03X9550800Y-9000000I-50800J0D01*
G01*
X11495200Y-8949200D02*
X11596800Y-9050800D01*
X11596800Y-8949200D02*
X11495200Y-9050800D01*
X11596800Y-9000000D02*
G75*
G03X11596800Y-9000000I-50800J0D01*
G01*
X11749200Y-8949200D02*
X11850800Y-9050800D01*
X11850800Y-8949200D02*
X11749200Y-9050800D01*
X11850800Y-9000000D02*
G75*
G03X11850800Y-9000000I-50800J0D01*
G01*
X12141200Y-8949200D02*
X12242800Y-9050800D01*
X12242800Y-8949200D02*
X12141200Y-9050800D01*
X12242800Y-9000000D02*
G75*
G03X12242800Y-9000000I-50800J0D01*
G01*
X12395200Y-8949200D02*
X12496800Y-9050800D01*
X12496800Y-8949200D02*
X12395200Y-9050800D01*
X12496800Y-9000000D02*
G75*
G03X12496800Y-9000000I-50800J0D01*
G01*
X12649200Y-8949200D02*
X12750800Y-9050800D01*
X12750800Y-8949200D02*
X12649200Y-9050800D01*
X12750800Y-9000000D02*
G75*
G03X12750800Y-9000000I-50800J0D01*
G01*
X14195200Y-8949200D02*
X14296800Y-9050800D01*
X14296800Y-8949200D02*
X14195200Y-9050800D01*
X14296800Y-9000000D02*
G75*
G03X14296800Y-9000000I-50800J0D01*
G01*
X14449200Y-8949200D02*
X14550800Y-9050800D01*
X14550800Y-8949200D02*
X14449200Y-9050800D01*
X14550800Y-9000000D02*
G75*
G03X14550800Y-9000000I-50800J0D01*
G01*
X19195200Y-8949200D02*
X19296800Y-9050800D01*
X19296800Y-8949200D02*
X19195200Y-9050800D01*
X19296800Y-9000000D02*
G75*
G03X19296800Y-9000000I-50800J0D01*
G01*
X19449200Y-8949200D02*
X19550800Y-9050800D01*
X19550800Y-8949200D02*
X19449200Y-9050800D01*
X19550800Y-9000000D02*
G75*
G03X19550800Y-9000000I-50800J0D01*
G01*
D13*
X2263929Y-10373214D02*
X2263929Y-10073214D01*
X2335357Y-10073214D01*
X2378214Y-10087500D01*
X2406786Y-10116072D01*
X2421071Y-10144643D01*
X2435357Y-10201786D01*
X2435357Y-10244643D01*
X2421071Y-10301786D01*
X2406786Y-10330357D01*
X2378214Y-10358929D01*
X2335357Y-10373214D01*
X2263929Y-10373214D01*
X2563929Y-10373214D02*
X2563929Y-10173214D01*
X2563929Y-10230357D02*
X2578214Y-10201786D01*
X2592500Y-10187500D01*
X2621071Y-10173214D01*
X2649643Y-10173214D01*
X2749643Y-10373214D02*
X2749643Y-10173214D01*
X2749643Y-10073214D02*
X2735357Y-10087500D01*
X2749643Y-10101786D01*
X2763929Y-10087500D01*
X2749643Y-10073214D01*
X2749643Y-10101786D01*
X2935357Y-10373214D02*
X2906786Y-10358929D01*
X2892500Y-10330357D01*
X2892500Y-10073214D01*
X3092500Y-10373214D02*
X3063928Y-10358929D01*
X3049643Y-10330357D01*
X3049643Y-10073214D01*
X3435357Y-10373214D02*
X3435357Y-10073214D01*
X3535357Y-10287500D01*
X3635357Y-10073214D01*
X3635357Y-10373214D01*
X3906786Y-10373214D02*
X3906786Y-10216072D01*
X3892500Y-10187500D01*
X3863928Y-10173214D01*
X3806786Y-10173214D01*
X3778214Y-10187500D01*
X3906786Y-10358929D02*
X3878214Y-10373214D01*
X3806786Y-10373214D01*
X3778214Y-10358929D01*
X3763928Y-10330357D01*
X3763928Y-10301786D01*
X3778214Y-10273214D01*
X3806786Y-10258929D01*
X3878214Y-10258929D01*
X3906786Y-10244643D01*
X4049643Y-10173214D02*
X4049643Y-10473214D01*
X4049643Y-10187500D02*
X4078214Y-10173214D01*
X4135357Y-10173214D01*
X4163928Y-10187500D01*
X4178214Y-10201786D01*
X4192500Y-10230357D01*
X4192500Y-10316072D01*
X4178214Y-10344643D01*
X4163928Y-10358929D01*
X4135357Y-10373214D01*
X4078214Y-10373214D01*
X4049643Y-10358929D01*
X4321071Y-10344643D02*
X4335357Y-10358929D01*
X4321071Y-10373214D01*
X4306786Y-10358929D01*
X4321071Y-10344643D01*
X4321071Y-10373214D01*
X4321071Y-10187500D02*
X4335357Y-10201786D01*
X4321071Y-10216072D01*
X4306786Y-10201786D01*
X4321071Y-10187500D01*
X4321071Y-10216072D01*
X1922500Y-10832500D02*
X1992500Y-10902500D01*
X1992500Y-10832500D02*
X1922500Y-10902500D01*
X2321071Y-10703214D02*
X2349643Y-10703214D01*
X2378214Y-10717500D01*
X2392500Y-10731786D01*
X2406786Y-10760357D01*
X2421071Y-10817500D01*
X2421071Y-10888929D01*
X2406786Y-10946072D01*
X2392500Y-10974643D01*
X2378214Y-10988929D01*
X2349643Y-11003214D01*
X2321071Y-11003214D01*
X2292500Y-10988929D01*
X2278214Y-10974643D01*
X2263929Y-10946072D01*
X2249643Y-10888929D01*
X2249643Y-10817500D01*
X2263929Y-10760357D01*
X2278214Y-10731786D01*
X2292500Y-10717500D01*
X2321071Y-10703214D01*
X2549643Y-10974643D02*
X2563929Y-10988929D01*
X2549643Y-11003214D01*
X2535357Y-10988929D01*
X2549643Y-10974643D01*
X2549643Y-11003214D01*
X2663928Y-10703214D02*
X2863928Y-10703214D01*
X2735357Y-11003214D01*
X3035357Y-10703214D02*
X3063928Y-10703214D01*
X3092500Y-10717500D01*
X3106786Y-10731786D01*
X3121071Y-10760357D01*
X3135357Y-10817500D01*
X3135357Y-10888929D01*
X3121071Y-10946072D01*
X3106786Y-10974643D01*
X3092500Y-10988929D01*
X3063928Y-11003214D01*
X3035357Y-11003214D01*
X3006786Y-10988929D01*
X2992500Y-10974643D01*
X2978214Y-10946072D01*
X2963928Y-10888929D01*
X2963928Y-10817500D01*
X2978214Y-10760357D01*
X2992500Y-10731786D01*
X3006786Y-10717500D01*
X3035357Y-10703214D01*
X3263928Y-11003214D02*
X3263928Y-10803214D01*
X3263928Y-10831786D02*
X3278214Y-10817500D01*
X3306786Y-10803214D01*
X3349643Y-10803214D01*
X3378214Y-10817500D01*
X3392500Y-10846072D01*
X3392500Y-11003214D01*
X3392500Y-10846072D02*
X3406786Y-10817500D01*
X3435357Y-10803214D01*
X3478214Y-10803214D01*
X3506786Y-10817500D01*
X3521071Y-10846072D01*
X3521071Y-11003214D01*
X3663928Y-11003214D02*
X3663928Y-10803214D01*
X3663928Y-10831786D02*
X3678214Y-10817500D01*
X3706786Y-10803214D01*
X3749643Y-10803214D01*
X3778214Y-10817500D01*
X3792500Y-10846072D01*
X3792500Y-11003214D01*
X3792500Y-10846072D02*
X3806786Y-10817500D01*
X3835357Y-10803214D01*
X3878214Y-10803214D01*
X3906786Y-10817500D01*
X3921071Y-10846072D01*
X3921071Y-11003214D01*
X4506786Y-10688929D02*
X4249643Y-11074643D01*
X4892500Y-10703214D02*
X4921071Y-10703214D01*
X4949643Y-10717500D01*
X4963928Y-10731786D01*
X4978214Y-10760357D01*
X4992500Y-10817500D01*
X4992500Y-10888929D01*
X4978214Y-10946072D01*
X4963928Y-10974643D01*
X4949643Y-10988929D01*
X4921071Y-11003214D01*
X4892500Y-11003214D01*
X4863928Y-10988929D01*
X4849643Y-10974643D01*
X4835357Y-10946072D01*
X4821071Y-10888929D01*
X4821071Y-10817500D01*
X4835357Y-10760357D01*
X4849643Y-10731786D01*
X4863928Y-10717500D01*
X4892500Y-10703214D01*
X5121071Y-10974643D02*
X5135357Y-10988929D01*
X5121071Y-11003214D01*
X5106786Y-10988929D01*
X5121071Y-10974643D01*
X5121071Y-11003214D01*
X5321071Y-10703214D02*
X5349643Y-10703214D01*
X5378214Y-10717500D01*
X5392500Y-10731786D01*
X5406786Y-10760357D01*
X5421071Y-10817500D01*
X5421071Y-10888929D01*
X5406786Y-10946072D01*
X5392500Y-10974643D01*
X5378214Y-10988929D01*
X5349643Y-11003214D01*
X5321071Y-11003214D01*
X5292500Y-10988929D01*
X5278214Y-10974643D01*
X5263928Y-10946072D01*
X5249643Y-10888929D01*
X5249643Y-10817500D01*
X5263928Y-10760357D01*
X5278214Y-10731786D01*
X5292500Y-10717500D01*
X5321071Y-10703214D01*
X5535357Y-10731786D02*
X5549643Y-10717500D01*
X5578214Y-10703214D01*
X5649643Y-10703214D01*
X5678214Y-10717500D01*
X5692500Y-10731786D01*
X5706785Y-10760357D01*
X5706785Y-10788929D01*
X5692500Y-10831786D01*
X5521071Y-11003214D01*
X5706785Y-11003214D01*
X5878214Y-10831786D02*
X5849643Y-10817500D01*
X5835357Y-10803214D01*
X5821071Y-10774643D01*
X5821071Y-10760357D01*
X5835357Y-10731786D01*
X5849643Y-10717500D01*
X5878214Y-10703214D01*
X5935357Y-10703214D01*
X5963928Y-10717500D01*
X5978214Y-10731786D01*
X5992500Y-10760357D01*
X5992500Y-10774643D01*
X5978214Y-10803214D01*
X5963928Y-10817500D01*
X5935357Y-10831786D01*
X5878214Y-10831786D01*
X5849643Y-10846072D01*
X5835357Y-10860357D01*
X5821071Y-10888929D01*
X5821071Y-10946072D01*
X5835357Y-10974643D01*
X5849643Y-10988929D01*
X5878214Y-11003214D01*
X5935357Y-11003214D01*
X5963928Y-10988929D01*
X5978214Y-10974643D01*
X5992500Y-10946072D01*
X5992500Y-10888929D01*
X5978214Y-10860357D01*
X5963928Y-10846072D01*
X5935357Y-10831786D01*
X6106786Y-10703214D02*
X6106786Y-10760357D01*
X6221071Y-10703214D02*
X6221071Y-10760357D01*
X6663928Y-11117500D02*
X6649643Y-11103214D01*
X6621071Y-11060357D01*
X6606785Y-11031786D01*
X6592500Y-10988929D01*
X6578214Y-10917500D01*
X6578214Y-10860357D01*
X6592500Y-10788929D01*
X6606785Y-10746072D01*
X6621071Y-10717500D01*
X6649643Y-10674643D01*
X6663928Y-10660357D01*
X6749643Y-10703214D02*
X6935357Y-10703214D01*
X6835357Y-10817500D01*
X6878214Y-10817500D01*
X6906785Y-10831786D01*
X6921071Y-10846072D01*
X6935357Y-10874643D01*
X6935357Y-10946072D01*
X6921071Y-10974643D01*
X6906785Y-10988929D01*
X6878214Y-11003214D01*
X6792500Y-11003214D01*
X6763928Y-10988929D01*
X6749643Y-10974643D01*
X7192500Y-10703214D02*
X7135357Y-10703214D01*
X7106785Y-10717500D01*
X7092500Y-10731786D01*
X7063928Y-10774643D01*
X7049643Y-10831786D01*
X7049643Y-10946072D01*
X7063928Y-10974643D01*
X7078214Y-10988929D01*
X7106785Y-11003214D01*
X7163928Y-11003214D01*
X7192500Y-10988929D01*
X7206785Y-10974643D01*
X7221071Y-10946072D01*
X7221071Y-10874643D01*
X7206785Y-10846072D01*
X7192500Y-10831786D01*
X7163928Y-10817500D01*
X7106785Y-10817500D01*
X7078214Y-10831786D01*
X7063928Y-10846072D01*
X7049643Y-10874643D01*
X7578214Y-11003214D02*
X7578214Y-10703214D01*
X7706785Y-11003214D02*
X7706785Y-10846072D01*
X7692500Y-10817500D01*
X7663928Y-10803214D01*
X7621071Y-10803214D01*
X7592500Y-10817500D01*
X7578214Y-10831786D01*
X7892500Y-11003214D02*
X7863928Y-10988929D01*
X7849643Y-10974643D01*
X7835357Y-10946072D01*
X7835357Y-10860357D01*
X7849643Y-10831786D01*
X7863928Y-10817500D01*
X7892500Y-10803214D01*
X7935357Y-10803214D01*
X7963928Y-10817500D01*
X7978214Y-10831786D01*
X7992500Y-10860357D01*
X7992500Y-10946072D01*
X7978214Y-10974643D01*
X7963928Y-10988929D01*
X7935357Y-11003214D01*
X7892500Y-11003214D01*
X8163928Y-11003214D02*
X8135357Y-10988929D01*
X8121071Y-10960357D01*
X8121071Y-10703214D01*
X8392500Y-10988929D02*
X8363928Y-11003214D01*
X8306786Y-11003214D01*
X8278214Y-10988929D01*
X8263928Y-10960357D01*
X8263928Y-10846072D01*
X8278214Y-10817500D01*
X8306786Y-10803214D01*
X8363928Y-10803214D01*
X8392500Y-10817500D01*
X8406786Y-10846072D01*
X8406786Y-10874643D01*
X8263928Y-10903214D01*
X8521071Y-10988929D02*
X8549643Y-11003214D01*
X8606786Y-11003214D01*
X8635357Y-10988929D01*
X8649643Y-10960357D01*
X8649643Y-10946072D01*
X8635357Y-10917500D01*
X8606786Y-10903214D01*
X8563929Y-10903214D01*
X8535357Y-10888929D01*
X8521071Y-10860357D01*
X8521071Y-10846072D01*
X8535357Y-10817500D01*
X8563929Y-10803214D01*
X8606786Y-10803214D01*
X8635357Y-10817500D01*
X8749643Y-11117500D02*
X8763929Y-11103214D01*
X8792500Y-11060357D01*
X8806786Y-11031786D01*
X8821071Y-10988929D01*
X8835357Y-10917500D01*
X8835357Y-10860357D01*
X8821071Y-10788929D01*
X8806786Y-10746072D01*
X8792500Y-10717500D01*
X8763929Y-10674643D01*
X8749643Y-10660357D01*
X1992500Y-11263500D02*
G75*
G03X1992500Y-11263500I-38100J0D01*
G01*
X2321071Y-11099214D02*
X2349643Y-11099214D01*
X2378214Y-11113500D01*
X2392500Y-11127786D01*
X2406786Y-11156357D01*
X2421071Y-11213500D01*
X2421071Y-11284929D01*
X2406786Y-11342071D01*
X2392500Y-11370643D01*
X2378214Y-11384929D01*
X2349643Y-11399214D01*
X2321071Y-11399214D01*
X2292500Y-11384929D01*
X2278214Y-11370643D01*
X2263929Y-11342071D01*
X2249643Y-11284929D01*
X2249643Y-11213500D01*
X2263929Y-11156357D01*
X2278214Y-11127786D01*
X2292500Y-11113500D01*
X2321071Y-11099214D01*
X2549643Y-11370643D02*
X2563929Y-11384929D01*
X2549643Y-11399214D01*
X2535357Y-11384929D01*
X2549643Y-11370643D01*
X2549643Y-11399214D01*
X2663928Y-11099214D02*
X2863928Y-11099214D01*
X2735357Y-11399214D01*
X3106786Y-11099214D02*
X3049643Y-11099214D01*
X3021071Y-11113500D01*
X3006786Y-11127786D01*
X2978214Y-11170643D01*
X2963928Y-11227786D01*
X2963928Y-11342071D01*
X2978214Y-11370643D01*
X2992500Y-11384929D01*
X3021071Y-11399214D01*
X3078214Y-11399214D01*
X3106786Y-11384929D01*
X3121071Y-11370643D01*
X3135357Y-11342071D01*
X3135357Y-11270643D01*
X3121071Y-11242071D01*
X3106786Y-11227786D01*
X3078214Y-11213500D01*
X3021071Y-11213500D01*
X2992500Y-11227786D01*
X2978214Y-11242071D01*
X2963928Y-11270643D01*
X3263928Y-11399214D02*
X3263928Y-11199214D01*
X3263928Y-11227786D02*
X3278214Y-11213500D01*
X3306786Y-11199214D01*
X3349643Y-11199214D01*
X3378214Y-11213500D01*
X3392500Y-11242071D01*
X3392500Y-11399214D01*
X3392500Y-11242071D02*
X3406786Y-11213500D01*
X3435357Y-11199214D01*
X3478214Y-11199214D01*
X3506786Y-11213500D01*
X3521071Y-11242071D01*
X3521071Y-11399214D01*
X3663928Y-11399214D02*
X3663928Y-11199214D01*
X3663928Y-11227786D02*
X3678214Y-11213500D01*
X3706786Y-11199214D01*
X3749643Y-11199214D01*
X3778214Y-11213500D01*
X3792500Y-11242071D01*
X3792500Y-11399214D01*
X3792500Y-11242071D02*
X3806786Y-11213500D01*
X3835357Y-11199214D01*
X3878214Y-11199214D01*
X3906786Y-11213500D01*
X3921071Y-11242071D01*
X3921071Y-11399214D01*
X4506786Y-11084929D02*
X4249643Y-11470643D01*
X4892500Y-11099214D02*
X4921071Y-11099214D01*
X4949643Y-11113500D01*
X4963928Y-11127786D01*
X4978214Y-11156357D01*
X4992500Y-11213500D01*
X4992500Y-11284929D01*
X4978214Y-11342071D01*
X4963928Y-11370643D01*
X4949643Y-11384929D01*
X4921071Y-11399214D01*
X4892500Y-11399214D01*
X4863928Y-11384929D01*
X4849643Y-11370643D01*
X4835357Y-11342071D01*
X4821071Y-11284929D01*
X4821071Y-11213500D01*
X4835357Y-11156357D01*
X4849643Y-11127786D01*
X4863928Y-11113500D01*
X4892500Y-11099214D01*
X5121071Y-11370643D02*
X5135357Y-11384929D01*
X5121071Y-11399214D01*
X5106786Y-11384929D01*
X5121071Y-11370643D01*
X5121071Y-11399214D01*
X5321071Y-11099214D02*
X5349643Y-11099214D01*
X5378214Y-11113500D01*
X5392500Y-11127786D01*
X5406786Y-11156357D01*
X5421071Y-11213500D01*
X5421071Y-11284929D01*
X5406786Y-11342071D01*
X5392500Y-11370643D01*
X5378214Y-11384929D01*
X5349643Y-11399214D01*
X5321071Y-11399214D01*
X5292500Y-11384929D01*
X5278214Y-11370643D01*
X5263928Y-11342071D01*
X5249643Y-11284929D01*
X5249643Y-11213500D01*
X5263928Y-11156357D01*
X5278214Y-11127786D01*
X5292500Y-11113500D01*
X5321071Y-11099214D01*
X5521071Y-11099214D02*
X5706785Y-11099214D01*
X5606785Y-11213500D01*
X5649643Y-11213500D01*
X5678214Y-11227786D01*
X5692500Y-11242071D01*
X5706785Y-11270643D01*
X5706785Y-11342071D01*
X5692500Y-11370643D01*
X5678214Y-11384929D01*
X5649643Y-11399214D01*
X5563928Y-11399214D01*
X5535357Y-11384929D01*
X5521071Y-11370643D01*
X5892500Y-11099214D02*
X5921071Y-11099214D01*
X5949643Y-11113500D01*
X5963928Y-11127786D01*
X5978214Y-11156357D01*
X5992500Y-11213500D01*
X5992500Y-11284929D01*
X5978214Y-11342071D01*
X5963928Y-11370643D01*
X5949643Y-11384929D01*
X5921071Y-11399214D01*
X5892500Y-11399214D01*
X5863928Y-11384929D01*
X5849643Y-11370643D01*
X5835357Y-11342071D01*
X5821071Y-11284929D01*
X5821071Y-11213500D01*
X5835357Y-11156357D01*
X5849643Y-11127786D01*
X5863928Y-11113500D01*
X5892500Y-11099214D01*
X6106786Y-11099214D02*
X6106786Y-11156357D01*
X6221071Y-11099214D02*
X6221071Y-11156357D01*
X6663928Y-11513500D02*
X6649643Y-11499214D01*
X6621071Y-11456357D01*
X6606785Y-11427786D01*
X6592500Y-11384929D01*
X6578214Y-11313500D01*
X6578214Y-11256357D01*
X6592500Y-11184929D01*
X6606785Y-11142072D01*
X6621071Y-11113500D01*
X6649643Y-11070643D01*
X6663928Y-11056357D01*
X6835357Y-11099214D02*
X6863928Y-11099214D01*
X6892500Y-11113500D01*
X6906785Y-11127786D01*
X6921071Y-11156357D01*
X6935357Y-11213500D01*
X6935357Y-11284929D01*
X6921071Y-11342071D01*
X6906785Y-11370643D01*
X6892500Y-11384929D01*
X6863928Y-11399214D01*
X6835357Y-11399214D01*
X6806785Y-11384929D01*
X6792500Y-11370643D01*
X6778214Y-11342071D01*
X6763928Y-11284929D01*
X6763928Y-11213500D01*
X6778214Y-11156357D01*
X6792500Y-11127786D01*
X6806785Y-11113500D01*
X6835357Y-11099214D01*
X7292500Y-11399214D02*
X7292500Y-11099214D01*
X7421071Y-11399214D02*
X7421071Y-11242071D01*
X7406785Y-11213500D01*
X7378214Y-11199214D01*
X7335357Y-11199214D01*
X7306785Y-11213500D01*
X7292500Y-11227786D01*
X7606785Y-11399214D02*
X7578214Y-11384929D01*
X7563928Y-11370643D01*
X7549643Y-11342071D01*
X7549643Y-11256357D01*
X7563928Y-11227786D01*
X7578214Y-11213500D01*
X7606785Y-11199214D01*
X7649643Y-11199214D01*
X7678214Y-11213500D01*
X7692500Y-11227786D01*
X7706785Y-11256357D01*
X7706785Y-11342071D01*
X7692500Y-11370643D01*
X7678214Y-11384929D01*
X7649643Y-11399214D01*
X7606785Y-11399214D01*
X7878214Y-11399214D02*
X7849643Y-11384929D01*
X7835357Y-11356357D01*
X7835357Y-11099214D01*
X8106786Y-11384929D02*
X8078214Y-11399214D01*
X8021071Y-11399214D01*
X7992500Y-11384929D01*
X7978214Y-11356357D01*
X7978214Y-11242071D01*
X7992500Y-11213500D01*
X8021071Y-11199214D01*
X8078214Y-11199214D01*
X8106786Y-11213500D01*
X8121071Y-11242071D01*
X8121071Y-11270643D01*
X7978214Y-11299214D01*
X8235357Y-11384929D02*
X8263928Y-11399214D01*
X8321071Y-11399214D01*
X8349643Y-11384929D01*
X8363928Y-11356357D01*
X8363928Y-11342071D01*
X8349643Y-11313500D01*
X8321071Y-11299214D01*
X8278214Y-11299214D01*
X8249643Y-11284929D01*
X8235357Y-11256357D01*
X8235357Y-11242071D01*
X8249643Y-11213500D01*
X8278214Y-11199214D01*
X8321071Y-11199214D01*
X8349643Y-11213500D01*
X8721071Y-11284929D02*
X8949643Y-11284929D01*
X8835357Y-11399214D02*
X8835357Y-11170643D01*
X9449643Y-11199214D02*
X9449643Y-11399214D01*
X9378214Y-11084929D02*
X9306786Y-11299214D01*
X9492500Y-11299214D01*
X9649643Y-11227786D02*
X9621071Y-11213500D01*
X9606786Y-11199214D01*
X9592500Y-11170643D01*
X9592500Y-11156357D01*
X9606786Y-11127786D01*
X9621071Y-11113500D01*
X9649643Y-11099214D01*
X9706786Y-11099214D01*
X9735357Y-11113500D01*
X9749643Y-11127786D01*
X9763928Y-11156357D01*
X9763928Y-11170643D01*
X9749643Y-11199214D01*
X9735357Y-11213500D01*
X9706786Y-11227786D01*
X9649643Y-11227786D01*
X9621071Y-11242071D01*
X9606786Y-11256357D01*
X9592500Y-11284929D01*
X9592500Y-11342071D01*
X9606786Y-11370643D01*
X9621071Y-11384929D01*
X9649643Y-11399214D01*
X9706786Y-11399214D01*
X9735357Y-11384929D01*
X9749643Y-11370643D01*
X9763928Y-11342071D01*
X9763928Y-11284929D01*
X9749643Y-11256357D01*
X9735357Y-11242071D01*
X9706786Y-11227786D01*
X10106786Y-11384929D02*
X10135357Y-11399214D01*
X10192500Y-11399214D01*
X10221071Y-11384929D01*
X10235357Y-11356357D01*
X10235357Y-11342071D01*
X10221071Y-11313500D01*
X10192500Y-11299214D01*
X10149643Y-11299214D01*
X10121071Y-11284929D01*
X10106786Y-11256357D01*
X10106786Y-11242071D01*
X10121071Y-11213500D01*
X10149643Y-11199214D01*
X10192500Y-11199214D01*
X10221071Y-11213500D01*
X10406786Y-11399214D02*
X10378214Y-11384929D01*
X10363928Y-11356357D01*
X10363928Y-11099214D01*
X10563928Y-11399214D02*
X10535357Y-11384929D01*
X10521071Y-11370643D01*
X10506786Y-11342071D01*
X10506786Y-11256357D01*
X10521071Y-11227786D01*
X10535357Y-11213500D01*
X10563928Y-11199214D01*
X10606786Y-11199214D01*
X10635357Y-11213500D01*
X10649643Y-11227786D01*
X10663928Y-11256357D01*
X10663928Y-11342071D01*
X10649643Y-11370643D01*
X10635357Y-11384929D01*
X10606786Y-11399214D01*
X10563928Y-11399214D01*
X10749643Y-11199214D02*
X10863928Y-11199214D01*
X10792500Y-11099214D02*
X10792500Y-11356357D01*
X10806786Y-11384929D01*
X10835357Y-11399214D01*
X10863928Y-11399214D01*
X10949643Y-11384929D02*
X10978214Y-11399214D01*
X11035357Y-11399214D01*
X11063929Y-11384929D01*
X11078214Y-11356357D01*
X11078214Y-11342071D01*
X11063929Y-11313500D01*
X11035357Y-11299214D01*
X10992500Y-11299214D01*
X10963929Y-11284929D01*
X10949643Y-11256357D01*
X10949643Y-11242071D01*
X10963929Y-11213500D01*
X10992500Y-11199214D01*
X11035357Y-11199214D01*
X11063929Y-11213500D01*
X11178214Y-11513500D02*
X11192500Y-11499214D01*
X11221071Y-11456357D01*
X11235357Y-11427786D01*
X11249643Y-11384929D01*
X11263928Y-11313500D01*
X11263928Y-11256357D01*
X11249643Y-11184929D01*
X11235357Y-11142072D01*
X11221071Y-11113500D01*
X11192500Y-11070643D01*
X11178214Y-11056357D01*
X1952500Y-11619500D02*
X1952500Y-11699500D01*
X1912500Y-11659500D02*
X1992500Y-11659500D01*
X2321071Y-11495214D02*
X2349643Y-11495214D01*
X2378214Y-11509500D01*
X2392500Y-11523786D01*
X2406786Y-11552357D01*
X2421071Y-11609500D01*
X2421071Y-11680929D01*
X2406786Y-11738071D01*
X2392500Y-11766643D01*
X2378214Y-11780929D01*
X2349643Y-11795214D01*
X2321071Y-11795214D01*
X2292500Y-11780929D01*
X2278214Y-11766643D01*
X2263929Y-11738071D01*
X2249643Y-11680929D01*
X2249643Y-11609500D01*
X2263929Y-11552357D01*
X2278214Y-11523786D01*
X2292500Y-11509500D01*
X2321071Y-11495214D01*
X2549643Y-11766643D02*
X2563929Y-11780929D01*
X2549643Y-11795214D01*
X2535357Y-11780929D01*
X2549643Y-11766643D01*
X2549643Y-11795214D01*
X2735357Y-11623786D02*
X2706786Y-11609500D01*
X2692500Y-11595214D01*
X2678214Y-11566643D01*
X2678214Y-11552357D01*
X2692500Y-11523786D01*
X2706786Y-11509500D01*
X2735357Y-11495214D01*
X2792500Y-11495214D01*
X2821071Y-11509500D01*
X2835357Y-11523786D01*
X2849643Y-11552357D01*
X2849643Y-11566643D01*
X2835357Y-11595214D01*
X2821071Y-11609500D01*
X2792500Y-11623786D01*
X2735357Y-11623786D01*
X2706786Y-11638071D01*
X2692500Y-11652357D01*
X2678214Y-11680929D01*
X2678214Y-11738071D01*
X2692500Y-11766643D01*
X2706786Y-11780929D01*
X2735357Y-11795214D01*
X2792500Y-11795214D01*
X2821071Y-11780929D01*
X2835357Y-11766643D01*
X2849643Y-11738071D01*
X2849643Y-11680929D01*
X2835357Y-11652357D01*
X2821071Y-11638071D01*
X2792500Y-11623786D01*
X3035357Y-11495214D02*
X3063928Y-11495214D01*
X3092500Y-11509500D01*
X3106786Y-11523786D01*
X3121071Y-11552357D01*
X3135357Y-11609500D01*
X3135357Y-11680929D01*
X3121071Y-11738071D01*
X3106786Y-11766643D01*
X3092500Y-11780929D01*
X3063928Y-11795214D01*
X3035357Y-11795214D01*
X3006786Y-11780929D01*
X2992500Y-11766643D01*
X2978214Y-11738071D01*
X2963928Y-11680929D01*
X2963928Y-11609500D01*
X2978214Y-11552357D01*
X2992500Y-11523786D01*
X3006786Y-11509500D01*
X3035357Y-11495214D01*
X3263928Y-11795214D02*
X3263928Y-11595214D01*
X3263928Y-11623786D02*
X3278214Y-11609500D01*
X3306786Y-11595214D01*
X3349643Y-11595214D01*
X3378214Y-11609500D01*
X3392500Y-11638071D01*
X3392500Y-11795214D01*
X3392500Y-11638071D02*
X3406786Y-11609500D01*
X3435357Y-11595214D01*
X3478214Y-11595214D01*
X3506786Y-11609500D01*
X3521071Y-11638071D01*
X3521071Y-11795214D01*
X3663928Y-11795214D02*
X3663928Y-11595214D01*
X3663928Y-11623786D02*
X3678214Y-11609500D01*
X3706786Y-11595214D01*
X3749643Y-11595214D01*
X3778214Y-11609500D01*
X3792500Y-11638071D01*
X3792500Y-11795214D01*
X3792500Y-11638071D02*
X3806786Y-11609500D01*
X3835357Y-11595214D01*
X3878214Y-11595214D01*
X3906786Y-11609500D01*
X3921071Y-11638071D01*
X3921071Y-11795214D01*
X4506786Y-11480929D02*
X4249643Y-11866643D01*
X4892500Y-11495214D02*
X4921071Y-11495214D01*
X4949643Y-11509500D01*
X4963928Y-11523786D01*
X4978214Y-11552357D01*
X4992500Y-11609500D01*
X4992500Y-11680929D01*
X4978214Y-11738071D01*
X4963928Y-11766643D01*
X4949643Y-11780929D01*
X4921071Y-11795214D01*
X4892500Y-11795214D01*
X4863928Y-11780929D01*
X4849643Y-11766643D01*
X4835357Y-11738071D01*
X4821071Y-11680929D01*
X4821071Y-11609500D01*
X4835357Y-11552357D01*
X4849643Y-11523786D01*
X4863928Y-11509500D01*
X4892500Y-11495214D01*
X5121071Y-11766643D02*
X5135357Y-11780929D01*
X5121071Y-11795214D01*
X5106786Y-11780929D01*
X5121071Y-11766643D01*
X5121071Y-11795214D01*
X5321071Y-11495214D02*
X5349643Y-11495214D01*
X5378214Y-11509500D01*
X5392500Y-11523786D01*
X5406786Y-11552357D01*
X5421071Y-11609500D01*
X5421071Y-11680929D01*
X5406786Y-11738071D01*
X5392500Y-11766643D01*
X5378214Y-11780929D01*
X5349643Y-11795214D01*
X5321071Y-11795214D01*
X5292500Y-11780929D01*
X5278214Y-11766643D01*
X5263928Y-11738071D01*
X5249643Y-11680929D01*
X5249643Y-11609500D01*
X5263928Y-11552357D01*
X5278214Y-11523786D01*
X5292500Y-11509500D01*
X5321071Y-11495214D01*
X5521071Y-11495214D02*
X5706785Y-11495214D01*
X5606785Y-11609500D01*
X5649643Y-11609500D01*
X5678214Y-11623786D01*
X5692500Y-11638071D01*
X5706785Y-11666643D01*
X5706785Y-11738071D01*
X5692500Y-11766643D01*
X5678214Y-11780929D01*
X5649643Y-11795214D01*
X5563928Y-11795214D01*
X5535357Y-11780929D01*
X5521071Y-11766643D01*
X5992500Y-11795214D02*
X5821071Y-11795214D01*
X5906785Y-11795214D02*
X5906785Y-11495214D01*
X5878214Y-11538071D01*
X5849643Y-11566643D01*
X5821071Y-11580929D01*
X6106786Y-11495214D02*
X6106786Y-11552357D01*
X6221071Y-11495214D02*
X6221071Y-11552357D01*
X6663928Y-11909500D02*
X6649643Y-11895214D01*
X6621071Y-11852357D01*
X6606785Y-11823786D01*
X6592500Y-11780929D01*
X6578214Y-11709500D01*
X6578214Y-11652357D01*
X6592500Y-11580929D01*
X6606785Y-11538071D01*
X6621071Y-11509500D01*
X6649643Y-11466643D01*
X6663928Y-11452357D01*
X6763928Y-11523786D02*
X6778214Y-11509500D01*
X6806785Y-11495214D01*
X6878214Y-11495214D01*
X6906785Y-11509500D01*
X6921071Y-11523786D01*
X6935357Y-11552357D01*
X6935357Y-11580929D01*
X6921071Y-11623786D01*
X6749643Y-11795214D01*
X6935357Y-11795214D01*
X7192500Y-11495214D02*
X7135357Y-11495214D01*
X7106785Y-11509500D01*
X7092500Y-11523786D01*
X7063928Y-11566643D01*
X7049643Y-11623786D01*
X7049643Y-11738071D01*
X7063928Y-11766643D01*
X7078214Y-11780929D01*
X7106785Y-11795214D01*
X7163928Y-11795214D01*
X7192500Y-11780929D01*
X7206785Y-11766643D01*
X7221071Y-11738071D01*
X7221071Y-11666643D01*
X7206785Y-11638071D01*
X7192500Y-11623786D01*
X7163928Y-11609500D01*
X7106785Y-11609500D01*
X7078214Y-11623786D01*
X7063928Y-11638071D01*
X7049643Y-11666643D01*
X7578214Y-11795214D02*
X7578214Y-11495214D01*
X7706785Y-11795214D02*
X7706785Y-11638071D01*
X7692500Y-11609500D01*
X7663928Y-11595214D01*
X7621071Y-11595214D01*
X7592500Y-11609500D01*
X7578214Y-11623786D01*
X7892500Y-11795214D02*
X7863928Y-11780929D01*
X7849643Y-11766643D01*
X7835357Y-11738071D01*
X7835357Y-11652357D01*
X7849643Y-11623786D01*
X7863928Y-11609500D01*
X7892500Y-11595214D01*
X7935357Y-11595214D01*
X7963928Y-11609500D01*
X7978214Y-11623786D01*
X7992500Y-11652357D01*
X7992500Y-11738071D01*
X7978214Y-11766643D01*
X7963928Y-11780929D01*
X7935357Y-11795214D01*
X7892500Y-11795214D01*
X8163928Y-11795214D02*
X8135357Y-11780929D01*
X8121071Y-11752357D01*
X8121071Y-11495214D01*
X8392500Y-11780929D02*
X8363928Y-11795214D01*
X8306786Y-11795214D01*
X8278214Y-11780929D01*
X8263928Y-11752357D01*
X8263928Y-11638071D01*
X8278214Y-11609500D01*
X8306786Y-11595214D01*
X8363928Y-11595214D01*
X8392500Y-11609500D01*
X8406786Y-11638071D01*
X8406786Y-11666643D01*
X8263928Y-11695214D01*
X8521071Y-11780929D02*
X8549643Y-11795214D01*
X8606786Y-11795214D01*
X8635357Y-11780929D01*
X8649643Y-11752357D01*
X8649643Y-11738071D01*
X8635357Y-11709500D01*
X8606786Y-11695214D01*
X8563929Y-11695214D01*
X8535357Y-11680929D01*
X8521071Y-11652357D01*
X8521071Y-11638071D01*
X8535357Y-11609500D01*
X8563929Y-11595214D01*
X8606786Y-11595214D01*
X8635357Y-11609500D01*
X8749643Y-11909500D02*
X8763929Y-11895214D01*
X8792500Y-11852357D01*
X8806786Y-11823786D01*
X8821071Y-11780929D01*
X8835357Y-11709500D01*
X8835357Y-11652357D01*
X8821071Y-11580929D01*
X8806786Y-11538071D01*
X8792500Y-11509500D01*
X8763929Y-11466643D01*
X8749643Y-11452357D01*
X1980783Y-12083788D02*
X1980783Y-12027212D01*
X1924207Y-12027212D01*
X1924207Y-12083788D01*
X1980783Y-12083788D01*
X2321071Y-11891214D02*
X2349643Y-11891214D01*
X2378214Y-11905500D01*
X2392500Y-11919786D01*
X2406786Y-11948357D01*
X2421071Y-12005500D01*
X2421071Y-12076929D01*
X2406786Y-12134071D01*
X2392500Y-12162643D01*
X2378214Y-12176929D01*
X2349643Y-12191214D01*
X2321071Y-12191214D01*
X2292500Y-12176929D01*
X2278214Y-12162643D01*
X2263929Y-12134071D01*
X2249643Y-12076929D01*
X2249643Y-12005500D01*
X2263929Y-11948357D01*
X2278214Y-11919786D01*
X2292500Y-11905500D01*
X2321071Y-11891214D01*
X2549643Y-12162643D02*
X2563929Y-12176929D01*
X2549643Y-12191214D01*
X2535357Y-12176929D01*
X2549643Y-12162643D01*
X2549643Y-12191214D01*
X2735357Y-12019786D02*
X2706786Y-12005500D01*
X2692500Y-11991214D01*
X2678214Y-11962643D01*
X2678214Y-11948357D01*
X2692500Y-11919786D01*
X2706786Y-11905500D01*
X2735357Y-11891214D01*
X2792500Y-11891214D01*
X2821071Y-11905500D01*
X2835357Y-11919786D01*
X2849643Y-11948357D01*
X2849643Y-11962643D01*
X2835357Y-11991214D01*
X2821071Y-12005500D01*
X2792500Y-12019786D01*
X2735357Y-12019786D01*
X2706786Y-12034071D01*
X2692500Y-12048357D01*
X2678214Y-12076929D01*
X2678214Y-12134071D01*
X2692500Y-12162643D01*
X2706786Y-12176929D01*
X2735357Y-12191214D01*
X2792500Y-12191214D01*
X2821071Y-12176929D01*
X2835357Y-12162643D01*
X2849643Y-12134071D01*
X2849643Y-12076929D01*
X2835357Y-12048357D01*
X2821071Y-12034071D01*
X2792500Y-12019786D01*
X3035357Y-11891214D02*
X3063928Y-11891214D01*
X3092500Y-11905500D01*
X3106786Y-11919786D01*
X3121071Y-11948357D01*
X3135357Y-12005500D01*
X3135357Y-12076929D01*
X3121071Y-12134071D01*
X3106786Y-12162643D01*
X3092500Y-12176929D01*
X3063928Y-12191214D01*
X3035357Y-12191214D01*
X3006786Y-12176929D01*
X2992500Y-12162643D01*
X2978214Y-12134071D01*
X2963928Y-12076929D01*
X2963928Y-12005500D01*
X2978214Y-11948357D01*
X2992500Y-11919786D01*
X3006786Y-11905500D01*
X3035357Y-11891214D01*
X3263928Y-12191214D02*
X3263928Y-11991214D01*
X3263928Y-12019786D02*
X3278214Y-12005500D01*
X3306786Y-11991214D01*
X3349643Y-11991214D01*
X3378214Y-12005500D01*
X3392500Y-12034071D01*
X3392500Y-12191214D01*
X3392500Y-12034071D02*
X3406786Y-12005500D01*
X3435357Y-11991214D01*
X3478214Y-11991214D01*
X3506786Y-12005500D01*
X3521071Y-12034071D01*
X3521071Y-12191214D01*
X3663928Y-12191214D02*
X3663928Y-11991214D01*
X3663928Y-12019786D02*
X3678214Y-12005500D01*
X3706786Y-11991214D01*
X3749643Y-11991214D01*
X3778214Y-12005500D01*
X3792500Y-12034071D01*
X3792500Y-12191214D01*
X3792500Y-12034071D02*
X3806786Y-12005500D01*
X3835357Y-11991214D01*
X3878214Y-11991214D01*
X3906786Y-12005500D01*
X3921071Y-12034071D01*
X3921071Y-12191214D01*
X4506786Y-11876929D02*
X4249643Y-12262643D01*
X4892500Y-11891214D02*
X4921071Y-11891214D01*
X4949643Y-11905500D01*
X4963928Y-11919786D01*
X4978214Y-11948357D01*
X4992500Y-12005500D01*
X4992500Y-12076929D01*
X4978214Y-12134071D01*
X4963928Y-12162643D01*
X4949643Y-12176929D01*
X4921071Y-12191214D01*
X4892500Y-12191214D01*
X4863928Y-12176929D01*
X4849643Y-12162643D01*
X4835357Y-12134071D01*
X4821071Y-12076929D01*
X4821071Y-12005500D01*
X4835357Y-11948357D01*
X4849643Y-11919786D01*
X4863928Y-11905500D01*
X4892500Y-11891214D01*
X5121071Y-12162643D02*
X5135357Y-12176929D01*
X5121071Y-12191214D01*
X5106786Y-12176929D01*
X5121071Y-12162643D01*
X5121071Y-12191214D01*
X5321071Y-11891214D02*
X5349643Y-11891214D01*
X5378214Y-11905500D01*
X5392500Y-11919786D01*
X5406786Y-11948357D01*
X5421071Y-12005500D01*
X5421071Y-12076929D01*
X5406786Y-12134071D01*
X5392500Y-12162643D01*
X5378214Y-12176929D01*
X5349643Y-12191214D01*
X5321071Y-12191214D01*
X5292500Y-12176929D01*
X5278214Y-12162643D01*
X5263928Y-12134071D01*
X5249643Y-12076929D01*
X5249643Y-12005500D01*
X5263928Y-11948357D01*
X5278214Y-11919786D01*
X5292500Y-11905500D01*
X5321071Y-11891214D01*
X5521071Y-11891214D02*
X5706785Y-11891214D01*
X5606785Y-12005500D01*
X5649643Y-12005500D01*
X5678214Y-12019786D01*
X5692500Y-12034071D01*
X5706785Y-12062643D01*
X5706785Y-12134071D01*
X5692500Y-12162643D01*
X5678214Y-12176929D01*
X5649643Y-12191214D01*
X5563928Y-12191214D01*
X5535357Y-12176929D01*
X5521071Y-12162643D01*
X5821071Y-11919786D02*
X5835357Y-11905500D01*
X5863928Y-11891214D01*
X5935357Y-11891214D01*
X5963928Y-11905500D01*
X5978214Y-11919786D01*
X5992500Y-11948357D01*
X5992500Y-11976929D01*
X5978214Y-12019786D01*
X5806785Y-12191214D01*
X5992500Y-12191214D01*
X6106786Y-11891214D02*
X6106786Y-11948357D01*
X6221071Y-11891214D02*
X6221071Y-11948357D01*
X6663928Y-12305500D02*
X6649643Y-12291214D01*
X6621071Y-12248357D01*
X6606785Y-12219786D01*
X6592500Y-12176929D01*
X6578214Y-12105500D01*
X6578214Y-12048357D01*
X6592500Y-11976929D01*
X6606785Y-11934071D01*
X6621071Y-11905500D01*
X6649643Y-11862643D01*
X6663928Y-11848357D01*
X6763928Y-11919786D02*
X6778214Y-11905500D01*
X6806785Y-11891214D01*
X6878214Y-11891214D01*
X6906785Y-11905500D01*
X6921071Y-11919786D01*
X6935357Y-11948357D01*
X6935357Y-11976929D01*
X6921071Y-12019786D01*
X6749643Y-12191214D01*
X6935357Y-12191214D01*
X7292500Y-12191214D02*
X7292500Y-11891214D01*
X7421071Y-12191214D02*
X7421071Y-12034071D01*
X7406785Y-12005500D01*
X7378214Y-11991214D01*
X7335357Y-11991214D01*
X7306785Y-12005500D01*
X7292500Y-12019786D01*
X7606785Y-12191214D02*
X7578214Y-12176929D01*
X7563928Y-12162643D01*
X7549643Y-12134071D01*
X7549643Y-12048357D01*
X7563928Y-12019786D01*
X7578214Y-12005500D01*
X7606785Y-11991214D01*
X7649643Y-11991214D01*
X7678214Y-12005500D01*
X7692500Y-12019786D01*
X7706785Y-12048357D01*
X7706785Y-12134071D01*
X7692500Y-12162643D01*
X7678214Y-12176929D01*
X7649643Y-12191214D01*
X7606785Y-12191214D01*
X7878214Y-12191214D02*
X7849643Y-12176929D01*
X7835357Y-12148357D01*
X7835357Y-11891214D01*
X8106786Y-12176929D02*
X8078214Y-12191214D01*
X8021071Y-12191214D01*
X7992500Y-12176929D01*
X7978214Y-12148357D01*
X7978214Y-12034071D01*
X7992500Y-12005500D01*
X8021071Y-11991214D01*
X8078214Y-11991214D01*
X8106786Y-12005500D01*
X8121071Y-12034071D01*
X8121071Y-12062643D01*
X7978214Y-12091214D01*
X8235357Y-12176929D02*
X8263928Y-12191214D01*
X8321071Y-12191214D01*
X8349643Y-12176929D01*
X8363928Y-12148357D01*
X8363928Y-12134071D01*
X8349643Y-12105500D01*
X8321071Y-12091214D01*
X8278214Y-12091214D01*
X8249643Y-12076929D01*
X8235357Y-12048357D01*
X8235357Y-12034071D01*
X8249643Y-12005500D01*
X8278214Y-11991214D01*
X8321071Y-11991214D01*
X8349643Y-12005500D01*
X8463928Y-12305500D02*
X8478214Y-12291214D01*
X8506786Y-12248357D01*
X8521071Y-12219786D01*
X8535357Y-12176929D01*
X8549643Y-12105500D01*
X8549643Y-12048357D01*
X8535357Y-11976929D01*
X8521071Y-11934071D01*
X8506786Y-11905500D01*
X8478214Y-11862643D01*
X8463928Y-11848357D01*
X1947500Y-12496500D02*
X1992500Y-12451500D01*
X1947500Y-12406500D01*
X1902500Y-12451500D01*
X1947500Y-12496500D01*
X2321071Y-12287214D02*
X2349643Y-12287214D01*
X2378214Y-12301500D01*
X2392500Y-12315786D01*
X2406786Y-12344357D01*
X2421071Y-12401500D01*
X2421071Y-12472929D01*
X2406786Y-12530071D01*
X2392500Y-12558643D01*
X2378214Y-12572929D01*
X2349643Y-12587214D01*
X2321071Y-12587214D01*
X2292500Y-12572929D01*
X2278214Y-12558643D01*
X2263929Y-12530071D01*
X2249643Y-12472929D01*
X2249643Y-12401500D01*
X2263929Y-12344357D01*
X2278214Y-12315786D01*
X2292500Y-12301500D01*
X2321071Y-12287214D01*
X2549643Y-12558643D02*
X2563929Y-12572929D01*
X2549643Y-12587214D01*
X2535357Y-12572929D01*
X2549643Y-12558643D01*
X2549643Y-12587214D01*
X2706786Y-12587214D02*
X2763928Y-12587214D01*
X2792500Y-12572929D01*
X2806786Y-12558643D01*
X2835357Y-12515786D01*
X2849643Y-12458643D01*
X2849643Y-12344357D01*
X2835357Y-12315786D01*
X2821071Y-12301500D01*
X2792500Y-12287214D01*
X2735357Y-12287214D01*
X2706786Y-12301500D01*
X2692500Y-12315786D01*
X2678214Y-12344357D01*
X2678214Y-12415786D01*
X2692500Y-12444357D01*
X2706786Y-12458643D01*
X2735357Y-12472929D01*
X2792500Y-12472929D01*
X2821071Y-12458643D01*
X2835357Y-12444357D01*
X2849643Y-12415786D01*
X3035357Y-12287214D02*
X3063928Y-12287214D01*
X3092500Y-12301500D01*
X3106786Y-12315786D01*
X3121071Y-12344357D01*
X3135357Y-12401500D01*
X3135357Y-12472929D01*
X3121071Y-12530071D01*
X3106786Y-12558643D01*
X3092500Y-12572929D01*
X3063928Y-12587214D01*
X3035357Y-12587214D01*
X3006786Y-12572929D01*
X2992500Y-12558643D01*
X2978214Y-12530071D01*
X2963928Y-12472929D01*
X2963928Y-12401500D01*
X2978214Y-12344357D01*
X2992500Y-12315786D01*
X3006786Y-12301500D01*
X3035357Y-12287214D01*
X3263928Y-12587214D02*
X3263928Y-12387214D01*
X3263928Y-12415786D02*
X3278214Y-12401500D01*
X3306786Y-12387214D01*
X3349643Y-12387214D01*
X3378214Y-12401500D01*
X3392500Y-12430071D01*
X3392500Y-12587214D01*
X3392500Y-12430071D02*
X3406786Y-12401500D01*
X3435357Y-12387214D01*
X3478214Y-12387214D01*
X3506786Y-12401500D01*
X3521071Y-12430071D01*
X3521071Y-12587214D01*
X3663928Y-12587214D02*
X3663928Y-12387214D01*
X3663928Y-12415786D02*
X3678214Y-12401500D01*
X3706786Y-12387214D01*
X3749643Y-12387214D01*
X3778214Y-12401500D01*
X3792500Y-12430071D01*
X3792500Y-12587214D01*
X3792500Y-12430071D02*
X3806786Y-12401500D01*
X3835357Y-12387214D01*
X3878214Y-12387214D01*
X3906786Y-12401500D01*
X3921071Y-12430071D01*
X3921071Y-12587214D01*
X4506786Y-12272929D02*
X4249643Y-12658643D01*
X4892500Y-12287214D02*
X4921071Y-12287214D01*
X4949643Y-12301500D01*
X4963928Y-12315786D01*
X4978214Y-12344357D01*
X4992500Y-12401500D01*
X4992500Y-12472929D01*
X4978214Y-12530071D01*
X4963928Y-12558643D01*
X4949643Y-12572929D01*
X4921071Y-12587214D01*
X4892500Y-12587214D01*
X4863928Y-12572929D01*
X4849643Y-12558643D01*
X4835357Y-12530071D01*
X4821071Y-12472929D01*
X4821071Y-12401500D01*
X4835357Y-12344357D01*
X4849643Y-12315786D01*
X4863928Y-12301500D01*
X4892500Y-12287214D01*
X5121071Y-12558643D02*
X5135357Y-12572929D01*
X5121071Y-12587214D01*
X5106786Y-12572929D01*
X5121071Y-12558643D01*
X5121071Y-12587214D01*
X5321071Y-12287214D02*
X5349643Y-12287214D01*
X5378214Y-12301500D01*
X5392500Y-12315786D01*
X5406786Y-12344357D01*
X5421071Y-12401500D01*
X5421071Y-12472929D01*
X5406786Y-12530071D01*
X5392500Y-12558643D01*
X5378214Y-12572929D01*
X5349643Y-12587214D01*
X5321071Y-12587214D01*
X5292500Y-12572929D01*
X5278214Y-12558643D01*
X5263928Y-12530071D01*
X5249643Y-12472929D01*
X5249643Y-12401500D01*
X5263928Y-12344357D01*
X5278214Y-12315786D01*
X5292500Y-12301500D01*
X5321071Y-12287214D01*
X5521071Y-12287214D02*
X5706785Y-12287214D01*
X5606785Y-12401500D01*
X5649643Y-12401500D01*
X5678214Y-12415786D01*
X5692500Y-12430071D01*
X5706785Y-12458643D01*
X5706785Y-12530071D01*
X5692500Y-12558643D01*
X5678214Y-12572929D01*
X5649643Y-12587214D01*
X5563928Y-12587214D01*
X5535357Y-12572929D01*
X5521071Y-12558643D01*
X5978214Y-12287214D02*
X5835357Y-12287214D01*
X5821071Y-12430071D01*
X5835357Y-12415786D01*
X5863928Y-12401500D01*
X5935357Y-12401500D01*
X5963928Y-12415786D01*
X5978214Y-12430071D01*
X5992500Y-12458643D01*
X5992500Y-12530071D01*
X5978214Y-12558643D01*
X5963928Y-12572929D01*
X5935357Y-12587214D01*
X5863928Y-12587214D01*
X5835357Y-12572929D01*
X5821071Y-12558643D01*
X6106786Y-12287214D02*
X6106786Y-12344357D01*
X6221071Y-12287214D02*
X6221071Y-12344357D01*
X6663928Y-12701500D02*
X6649643Y-12687214D01*
X6621071Y-12644357D01*
X6606785Y-12615786D01*
X6592500Y-12572929D01*
X6578214Y-12501500D01*
X6578214Y-12444357D01*
X6592500Y-12372929D01*
X6606785Y-12330071D01*
X6621071Y-12301500D01*
X6649643Y-12258643D01*
X6663928Y-12244357D01*
X6821071Y-12415786D02*
X6792500Y-12401500D01*
X6778214Y-12387214D01*
X6763928Y-12358643D01*
X6763928Y-12344357D01*
X6778214Y-12315786D01*
X6792500Y-12301500D01*
X6821071Y-12287214D01*
X6878214Y-12287214D01*
X6906785Y-12301500D01*
X6921071Y-12315786D01*
X6935357Y-12344357D01*
X6935357Y-12358643D01*
X6921071Y-12387214D01*
X6906785Y-12401500D01*
X6878214Y-12415786D01*
X6821071Y-12415786D01*
X6792500Y-12430071D01*
X6778214Y-12444357D01*
X6763928Y-12472929D01*
X6763928Y-12530071D01*
X6778214Y-12558643D01*
X6792500Y-12572929D01*
X6821071Y-12587214D01*
X6878214Y-12587214D01*
X6906785Y-12572929D01*
X6921071Y-12558643D01*
X6935357Y-12530071D01*
X6935357Y-12472929D01*
X6921071Y-12444357D01*
X6906785Y-12430071D01*
X6878214Y-12415786D01*
X7292500Y-12587214D02*
X7292500Y-12287214D01*
X7421071Y-12587214D02*
X7421071Y-12430071D01*
X7406785Y-12401500D01*
X7378214Y-12387214D01*
X7335357Y-12387214D01*
X7306785Y-12401500D01*
X7292500Y-12415786D01*
X7606785Y-12587214D02*
X7578214Y-12572929D01*
X7563928Y-12558643D01*
X7549643Y-12530071D01*
X7549643Y-12444357D01*
X7563928Y-12415786D01*
X7578214Y-12401500D01*
X7606785Y-12387214D01*
X7649643Y-12387214D01*
X7678214Y-12401500D01*
X7692500Y-12415786D01*
X7706785Y-12444357D01*
X7706785Y-12530071D01*
X7692500Y-12558643D01*
X7678214Y-12572929D01*
X7649643Y-12587214D01*
X7606785Y-12587214D01*
X7878214Y-12587214D02*
X7849643Y-12572929D01*
X7835357Y-12544357D01*
X7835357Y-12287214D01*
X8106786Y-12572929D02*
X8078214Y-12587214D01*
X8021071Y-12587214D01*
X7992500Y-12572929D01*
X7978214Y-12544357D01*
X7978214Y-12430071D01*
X7992500Y-12401500D01*
X8021071Y-12387214D01*
X8078214Y-12387214D01*
X8106786Y-12401500D01*
X8121071Y-12430071D01*
X8121071Y-12458643D01*
X7978214Y-12487214D01*
X8235357Y-12572929D02*
X8263928Y-12587214D01*
X8321071Y-12587214D01*
X8349643Y-12572929D01*
X8363928Y-12544357D01*
X8363928Y-12530071D01*
X8349643Y-12501500D01*
X8321071Y-12487214D01*
X8278214Y-12487214D01*
X8249643Y-12472929D01*
X8235357Y-12444357D01*
X8235357Y-12430071D01*
X8249643Y-12401500D01*
X8278214Y-12387214D01*
X8321071Y-12387214D01*
X8349643Y-12401500D01*
X8463928Y-12701500D02*
X8478214Y-12687214D01*
X8506786Y-12644357D01*
X8521071Y-12615786D01*
X8535357Y-12572929D01*
X8549643Y-12501500D01*
X8549643Y-12444357D01*
X8535357Y-12372929D01*
X8521071Y-12330071D01*
X8506786Y-12301500D01*
X8478214Y-12258643D01*
X8463928Y-12244357D01*
X1890900Y-12796700D02*
X1992500Y-12898300D01*
X1992500Y-12796700D02*
X1890900Y-12898300D01*
X1992500Y-12847500D02*
G75*
G03X1992500Y-12847500I-50800J0D01*
G01*
X2421071Y-12983214D02*
X2249643Y-12983214D01*
X2335357Y-12983214D02*
X2335357Y-12683214D01*
X2306786Y-12726071D01*
X2278214Y-12754643D01*
X2249643Y-12768929D01*
X2549643Y-12954643D02*
X2563929Y-12968929D01*
X2549643Y-12983214D01*
X2535357Y-12968929D01*
X2549643Y-12954643D01*
X2549643Y-12983214D01*
X2749643Y-12683214D02*
X2778214Y-12683214D01*
X2806786Y-12697500D01*
X2821071Y-12711786D01*
X2835357Y-12740357D01*
X2849643Y-12797500D01*
X2849643Y-12868929D01*
X2835357Y-12926071D01*
X2821071Y-12954643D01*
X2806786Y-12968929D01*
X2778214Y-12983214D01*
X2749643Y-12983214D01*
X2721071Y-12968929D01*
X2706786Y-12954643D01*
X2692500Y-12926071D01*
X2678214Y-12868929D01*
X2678214Y-12797500D01*
X2692500Y-12740357D01*
X2706786Y-12711786D01*
X2721071Y-12697500D01*
X2749643Y-12683214D01*
X2963928Y-12711786D02*
X2978214Y-12697500D01*
X3006786Y-12683214D01*
X3078214Y-12683214D01*
X3106786Y-12697500D01*
X3121071Y-12711786D01*
X3135357Y-12740357D01*
X3135357Y-12768929D01*
X3121071Y-12811786D01*
X2949643Y-12983214D01*
X3135357Y-12983214D01*
X3263928Y-12983214D02*
X3263928Y-12783214D01*
X3263928Y-12811786D02*
X3278214Y-12797500D01*
X3306786Y-12783214D01*
X3349643Y-12783214D01*
X3378214Y-12797500D01*
X3392500Y-12826071D01*
X3392500Y-12983214D01*
X3392500Y-12826071D02*
X3406786Y-12797500D01*
X3435357Y-12783214D01*
X3478214Y-12783214D01*
X3506786Y-12797500D01*
X3521071Y-12826071D01*
X3521071Y-12983214D01*
X3663928Y-12983214D02*
X3663928Y-12783214D01*
X3663928Y-12811786D02*
X3678214Y-12797500D01*
X3706786Y-12783214D01*
X3749643Y-12783214D01*
X3778214Y-12797500D01*
X3792500Y-12826071D01*
X3792500Y-12983214D01*
X3792500Y-12826071D02*
X3806786Y-12797500D01*
X3835357Y-12783214D01*
X3878214Y-12783214D01*
X3906786Y-12797500D01*
X3921071Y-12826071D01*
X3921071Y-12983214D01*
X4506786Y-12668929D02*
X4249643Y-13054643D01*
X4892500Y-12683214D02*
X4921071Y-12683214D01*
X4949643Y-12697500D01*
X4963928Y-12711786D01*
X4978214Y-12740357D01*
X4992500Y-12797500D01*
X4992500Y-12868929D01*
X4978214Y-12926071D01*
X4963928Y-12954643D01*
X4949643Y-12968929D01*
X4921071Y-12983214D01*
X4892500Y-12983214D01*
X4863928Y-12968929D01*
X4849643Y-12954643D01*
X4835357Y-12926071D01*
X4821071Y-12868929D01*
X4821071Y-12797500D01*
X4835357Y-12740357D01*
X4849643Y-12711786D01*
X4863928Y-12697500D01*
X4892500Y-12683214D01*
X5121071Y-12954643D02*
X5135357Y-12968929D01*
X5121071Y-12983214D01*
X5106786Y-12968929D01*
X5121071Y-12954643D01*
X5121071Y-12983214D01*
X5321071Y-12683214D02*
X5349643Y-12683214D01*
X5378214Y-12697500D01*
X5392500Y-12711786D01*
X5406786Y-12740357D01*
X5421071Y-12797500D01*
X5421071Y-12868929D01*
X5406786Y-12926071D01*
X5392500Y-12954643D01*
X5378214Y-12968929D01*
X5349643Y-12983214D01*
X5321071Y-12983214D01*
X5292500Y-12968929D01*
X5278214Y-12954643D01*
X5263928Y-12926071D01*
X5249643Y-12868929D01*
X5249643Y-12797500D01*
X5263928Y-12740357D01*
X5278214Y-12711786D01*
X5292500Y-12697500D01*
X5321071Y-12683214D01*
X5678214Y-12783214D02*
X5678214Y-12983214D01*
X5606785Y-12668929D02*
X5535357Y-12883214D01*
X5721071Y-12883214D01*
X5892500Y-12683214D02*
X5921071Y-12683214D01*
X5949643Y-12697500D01*
X5963928Y-12711786D01*
X5978214Y-12740357D01*
X5992500Y-12797500D01*
X5992500Y-12868929D01*
X5978214Y-12926071D01*
X5963928Y-12954643D01*
X5949643Y-12968929D01*
X5921071Y-12983214D01*
X5892500Y-12983214D01*
X5863928Y-12968929D01*
X5849643Y-12954643D01*
X5835357Y-12926071D01*
X5821071Y-12868929D01*
X5821071Y-12797500D01*
X5835357Y-12740357D01*
X5849643Y-12711786D01*
X5863928Y-12697500D01*
X5892500Y-12683214D01*
X6106786Y-12683214D02*
X6106786Y-12740357D01*
X6221071Y-12683214D02*
X6221071Y-12740357D01*
X6663928Y-13097500D02*
X6649643Y-13083214D01*
X6621071Y-13040357D01*
X6606785Y-13011786D01*
X6592500Y-12968929D01*
X6578214Y-12897500D01*
X6578214Y-12840357D01*
X6592500Y-12768929D01*
X6606785Y-12726071D01*
X6621071Y-12697500D01*
X6649643Y-12654643D01*
X6663928Y-12640357D01*
X6935357Y-12983214D02*
X6763928Y-12983214D01*
X6849643Y-12983214D02*
X6849643Y-12683214D01*
X6821071Y-12726071D01*
X6792500Y-12754643D01*
X6763928Y-12768929D01*
X7035357Y-12683214D02*
X7221071Y-12683214D01*
X7121071Y-12797500D01*
X7163928Y-12797500D01*
X7192500Y-12811786D01*
X7206785Y-12826071D01*
X7221071Y-12854643D01*
X7221071Y-12926071D01*
X7206785Y-12954643D01*
X7192500Y-12968929D01*
X7163928Y-12983214D01*
X7078214Y-12983214D01*
X7049643Y-12968929D01*
X7035357Y-12954643D01*
X7578214Y-12983214D02*
X7578214Y-12683214D01*
X7706785Y-12983214D02*
X7706785Y-12826071D01*
X7692500Y-12797500D01*
X7663928Y-12783214D01*
X7621071Y-12783214D01*
X7592500Y-12797500D01*
X7578214Y-12811786D01*
X7892500Y-12983214D02*
X7863928Y-12968929D01*
X7849643Y-12954643D01*
X7835357Y-12926071D01*
X7835357Y-12840357D01*
X7849643Y-12811786D01*
X7863928Y-12797500D01*
X7892500Y-12783214D01*
X7935357Y-12783214D01*
X7963928Y-12797500D01*
X7978214Y-12811786D01*
X7992500Y-12840357D01*
X7992500Y-12926071D01*
X7978214Y-12954643D01*
X7963928Y-12968929D01*
X7935357Y-12983214D01*
X7892500Y-12983214D01*
X8163928Y-12983214D02*
X8135357Y-12968929D01*
X8121071Y-12940357D01*
X8121071Y-12683214D01*
X8392500Y-12968929D02*
X8363928Y-12983214D01*
X8306786Y-12983214D01*
X8278214Y-12968929D01*
X8263928Y-12940357D01*
X8263928Y-12826071D01*
X8278214Y-12797500D01*
X8306786Y-12783214D01*
X8363928Y-12783214D01*
X8392500Y-12797500D01*
X8406786Y-12826071D01*
X8406786Y-12854643D01*
X8263928Y-12883214D01*
X8521071Y-12968929D02*
X8549643Y-12983214D01*
X8606786Y-12983214D01*
X8635357Y-12968929D01*
X8649643Y-12940357D01*
X8649643Y-12926071D01*
X8635357Y-12897500D01*
X8606786Y-12883214D01*
X8563929Y-12883214D01*
X8535357Y-12868929D01*
X8521071Y-12840357D01*
X8521071Y-12826071D01*
X8535357Y-12797500D01*
X8563929Y-12783214D01*
X8606786Y-12783214D01*
X8635357Y-12797500D01*
X8749643Y-13097500D02*
X8763929Y-13083214D01*
X8792500Y-13040357D01*
X8806786Y-13011786D01*
X8821071Y-12968929D01*
X8835357Y-12897500D01*
X8835357Y-12840357D01*
X8821071Y-12768929D01*
X8806786Y-12726071D01*
X8792500Y-12697500D01*
X8763929Y-12654643D01*
X8749643Y-12640357D01*
M02*
