G04 #@! TF.FileFunction,Soldermask,Bot*
%FSLAX46Y46*%
G04 Gerber Fmt 4.6, Leading zero omitted, Abs format (unit mm)*
G04 Created by KiCad (PCBNEW 4.0.7) date Sunday 08 October 2017 21:21:43*
%MOMM*%
%LPD*%
G01*
G04 APERTURE LIST*
%ADD10C,0.100000*%
%ADD11R,2.432000X2.432000*%
%ADD12O,2.432000X2.432000*%
%ADD13R,2.127200X2.432000*%
%ADD14O,2.127200X2.432000*%
%ADD15R,1.700000X1.700000*%
%ADD16C,1.700000*%
%ADD17O,2.700000X2.000000*%
%ADD18R,2.200000X2.200000*%
%ADD19C,2.200000*%
%ADD20C,2.000000*%
%ADD21C,1.800000*%
%ADD22O,1.800000X1.800000*%
%ADD23R,1.924000X2.700000*%
G04 APERTURE END LIST*
D10*
D11*
X195000000Y-90000000D03*
D12*
X192460000Y-90000000D03*
D11*
X145000000Y-90000000D03*
D12*
X142460000Y-90000000D03*
D11*
X95000000Y-90000000D03*
D12*
X92460000Y-90000000D03*
D11*
X45000000Y-90000000D03*
D12*
X42460000Y-90000000D03*
D11*
X118000000Y-90000000D03*
D12*
X115460000Y-90000000D03*
D13*
X127000000Y-90000000D03*
D14*
X124460000Y-90000000D03*
X121920000Y-90000000D03*
D15*
X123125000Y-71150000D03*
D16*
X123125000Y-73650000D03*
D15*
X138975000Y-73550000D03*
D16*
X138975000Y-76050000D03*
D17*
X127060000Y-71200000D03*
X127060000Y-73740000D03*
X127060000Y-76280000D03*
X127060000Y-78820000D03*
X134680000Y-78820000D03*
X134680000Y-76280000D03*
X134680000Y-73740000D03*
X134680000Y-71200000D03*
D18*
X185000000Y-54000000D03*
D19*
X182460000Y-54000000D03*
D18*
X135000000Y-54000000D03*
D19*
X132460000Y-54000000D03*
D18*
X85000000Y-54000000D03*
D19*
X82460000Y-54000000D03*
D18*
X35000000Y-54000000D03*
D19*
X32460000Y-54000000D03*
D20*
X216250000Y-80000000D03*
X216250000Y-85000000D03*
X211500000Y-80000000D03*
X211500000Y-85000000D03*
X170000000Y-80000000D03*
X170000000Y-85000000D03*
X165000000Y-80000000D03*
X165000000Y-85000000D03*
X95000000Y-80000000D03*
X95000000Y-85000000D03*
X90000000Y-80000000D03*
X90000000Y-85000000D03*
X45000000Y-80000000D03*
X45000000Y-85000000D03*
X40000000Y-80000000D03*
X40000000Y-85000000D03*
D21*
X182495000Y-62000000D03*
D22*
X187575000Y-62000000D03*
D21*
X132395000Y-62000000D03*
D22*
X137475000Y-62000000D03*
D21*
X82500000Y-62000000D03*
D22*
X87580000Y-62000000D03*
D21*
X32565000Y-62000000D03*
D22*
X37645000Y-62000000D03*
D21*
X189170000Y-71275000D03*
D22*
X194250000Y-71275000D03*
D21*
X189170000Y-75450000D03*
D22*
X194250000Y-75450000D03*
D21*
X142670000Y-61475000D03*
D22*
X147750000Y-61475000D03*
D21*
X142775000Y-65225000D03*
D22*
X147855000Y-65225000D03*
D21*
X118605000Y-61575000D03*
D22*
X113525000Y-61575000D03*
D21*
X118680000Y-65375000D03*
D22*
X113600000Y-65375000D03*
D21*
X75735000Y-61550000D03*
D22*
X70655000Y-61550000D03*
D21*
X75710000Y-65525000D03*
D22*
X70630000Y-65525000D03*
D21*
X123200000Y-76350000D03*
D22*
X123200000Y-81430000D03*
D21*
X118750000Y-69970000D03*
D22*
X118750000Y-75050000D03*
D21*
X115175000Y-70000000D03*
D22*
X115175000Y-75080000D03*
D21*
X138925000Y-78800000D03*
D22*
X138925000Y-83880000D03*
D21*
X143000000Y-72550000D03*
D22*
X143000000Y-77630000D03*
D21*
X146300000Y-72475000D03*
D22*
X146300000Y-77555000D03*
D23*
X207500000Y-79500000D03*
X201500000Y-79500000D03*
X207500000Y-75500000D03*
X201500000Y-75500000D03*
X207500000Y-71500000D03*
X201500000Y-71500000D03*
X207500000Y-67500000D03*
X201500000Y-67500000D03*
X207500000Y-63500000D03*
X201500000Y-63500000D03*
X207500000Y-59500000D03*
X201500000Y-59500000D03*
X158500000Y-79500000D03*
X152500000Y-79500000D03*
X158500000Y-75500000D03*
X152500000Y-75500000D03*
X158500000Y-71500000D03*
X152500000Y-71500000D03*
X158500000Y-67500000D03*
X152500000Y-67500000D03*
X158500000Y-63500000D03*
X152500000Y-63500000D03*
X158500000Y-59500000D03*
X152500000Y-59500000D03*
X108500000Y-79500000D03*
X102500000Y-79500000D03*
X108500000Y-75500000D03*
X102500000Y-75500000D03*
X108500000Y-71500000D03*
X102500000Y-71500000D03*
X108500000Y-67500000D03*
X102500000Y-67500000D03*
X108500000Y-63500000D03*
X102500000Y-63500000D03*
X108500000Y-59500000D03*
X102500000Y-59500000D03*
X59500000Y-79500000D03*
X53500000Y-79500000D03*
X59500000Y-75500000D03*
X53500000Y-75500000D03*
X59500000Y-71500000D03*
X53500000Y-71500000D03*
X59500000Y-67500000D03*
X53500000Y-67500000D03*
X59500000Y-63500000D03*
X53500000Y-63500000D03*
X59500000Y-59500000D03*
X53500000Y-59500000D03*
M02*
