M48
;DRILL file {KiCad 4.0.7} date Sunday 08 October 2017 21:21:46
;FORMAT={-:-/ absolute / metric / decimal}
FMAT,2
METRIC,TZ
T1C0.700
T2C0.762
T3C0.800
T4C0.800
T5C0.900
T6C1.016
%
G90
G05
M71
T1
X32.565Y-62.
X37.645Y-62.
X70.63Y-65.525
X70.655Y-61.55
X75.71Y-65.525
X75.735Y-61.55
X82.5Y-62.
X87.58Y-62.
X113.525Y-61.575
X113.6Y-65.375
X115.175Y-70.
X115.175Y-75.08
X118.605Y-61.575
X118.68Y-65.375
X118.75Y-69.97
X118.75Y-75.05
X123.2Y-76.35
X123.2Y-81.43
X132.395Y-62.
X137.475Y-62.
X138.925Y-78.8
X138.925Y-83.88
X142.67Y-61.475
X142.775Y-65.225
X143.Y-72.55
X143.Y-77.63
X146.3Y-72.475
X146.3Y-77.555
X147.75Y-61.475
X147.855Y-65.225
X182.495Y-62.
X187.575Y-62.
X189.17Y-71.275
X189.17Y-75.45
X194.25Y-71.275
X194.25Y-75.45
T3
X40.Y-80.
X40.Y-85.
X45.Y-80.
X45.Y-85.
X90.Y-80.
X90.Y-85.
X95.Y-80.
X95.Y-85.
X123.125Y-71.15
X127.06Y-71.2
X127.06Y-73.74
X127.06Y-76.28
X127.06Y-78.82
X134.68Y-71.2
X134.68Y-73.74
X134.68Y-76.28
X134.68Y-78.82
X138.975Y-73.55
X165.Y-80.
X165.Y-85.
X170.Y-80.
X170.Y-85.
X211.5Y-80.
X211.5Y-85.
X216.25Y-80.
X216.25Y-85.
T4
X123.125Y-73.65
X138.975Y-76.05
T5
X32.46Y-54.
X35.Y-54.
X82.46Y-54.
X85.Y-54.
X132.46Y-54.
X135.Y-54.
X182.46Y-54.
X185.Y-54.
T6
X42.46Y-90.
X45.Y-90.
X92.46Y-90.
X95.Y-90.
X115.46Y-90.
X118.Y-90.
X121.92Y-90.
X124.46Y-90.
X127.Y-90.
X142.46Y-90.
X145.Y-90.
X192.46Y-90.
X195.Y-90.
T2
X53.5Y-59.719G85X53.5Y-59.281
G05
X53.5Y-63.719G85X53.5Y-63.281
G05
X53.5Y-67.719G85X53.5Y-67.281
G05
X53.5Y-71.719G85X53.5Y-71.281
G05
X53.5Y-75.719G85X53.5Y-75.281
G05
X53.5Y-79.719G85X53.5Y-79.281
G05
X59.5Y-59.719G85X59.5Y-59.281
G05
X59.5Y-63.719G85X59.5Y-63.281
G05
X59.5Y-67.719G85X59.5Y-67.281
G05
X59.5Y-71.719G85X59.5Y-71.281
G05
X59.5Y-75.719G85X59.5Y-75.281
G05
X59.5Y-79.719G85X59.5Y-79.281
G05
X102.5Y-59.719G85X102.5Y-59.281
G05
X102.5Y-63.719G85X102.5Y-63.281
G05
X102.5Y-67.719G85X102.5Y-67.281
G05
X102.5Y-71.719G85X102.5Y-71.281
G05
X102.5Y-75.719G85X102.5Y-75.281
G05
X102.5Y-79.719G85X102.5Y-79.281
G05
X108.5Y-59.719G85X108.5Y-59.281
G05
X108.5Y-63.719G85X108.5Y-63.281
G05
X108.5Y-67.719G85X108.5Y-67.281
G05
X108.5Y-71.719G85X108.5Y-71.281
G05
X108.5Y-75.719G85X108.5Y-75.281
G05
X108.5Y-79.719G85X108.5Y-79.281
G05
X152.5Y-59.719G85X152.5Y-59.281
G05
X152.5Y-63.719G85X152.5Y-63.281
G05
X152.5Y-67.719G85X152.5Y-67.281
G05
X152.5Y-71.719G85X152.5Y-71.281
G05
X152.5Y-75.719G85X152.5Y-75.281
G05
X152.5Y-79.719G85X152.5Y-79.281
G05
X158.5Y-59.719G85X158.5Y-59.281
G05
X158.5Y-63.719G85X158.5Y-63.281
G05
X158.5Y-67.719G85X158.5Y-67.281
G05
X158.5Y-71.719G85X158.5Y-71.281
G05
X158.5Y-75.719G85X158.5Y-75.281
G05
X158.5Y-79.719G85X158.5Y-79.281
G05
X201.5Y-59.719G85X201.5Y-59.281
G05
X201.5Y-63.719G85X201.5Y-63.281
G05
X201.5Y-67.719G85X201.5Y-67.281
G05
X201.5Y-71.719G85X201.5Y-71.281
G05
X201.5Y-75.719G85X201.5Y-75.281
G05
X201.5Y-79.719G85X201.5Y-79.281
G05
X207.5Y-59.719G85X207.5Y-59.281
G05
X207.5Y-63.719G85X207.5Y-63.281
G05
X207.5Y-67.719G85X207.5Y-67.281
G05
X207.5Y-71.719G85X207.5Y-71.281
G05
X207.5Y-75.719G85X207.5Y-75.281
G05
X207.5Y-79.719G85X207.5Y-79.281
G05
T0
M30
